<svg width="91" height="69" viewBox="0 0 91 69" fill="none" xmlns="http://www.w3.org/2000/svg">
<g clip-path="url(#clip0_76_6789)">
<path d="M79.2809 19.2784C79.2608 19.3773 79.261 19.4793 79.2815 19.5781C79.302 19.677 79.3423 19.7707 79.4 19.8535C79.6297 20.3184 79.8914 20.7668 80.183 21.1955C80.2334 21.2722 80.2899 21.3429 80.3424 21.4175C80.647 21.3369 80.9425 21.2253 81.2243 21.0845C81.6922 20.8789 82.122 20.5957 82.4957 20.247C82.8699 19.8921 83.1077 19.4172 83.1677 18.905C83.1742 18.8727 83.1692 18.8392 83.1536 18.8102C83.1331 18.7804 83.1021 18.7595 83.0668 18.7516C82.5179 18.5498 81.9145 18.7052 81.3515 18.8546L79.8904 19.234C79.8382 19.1348 79.7767 19.0409 79.7067 18.9534C79.6156 18.9713 79.5297 19.0099 79.4559 19.0662C79.3821 19.1226 79.3222 19.1952 79.2809 19.2784Z" fill="#3C3C3B" stroke="#231F20" stroke-width="0.020181" stroke-miterlimit="10"/>
<path d="M11.0915 51.7152C11.1338 52.7525 11.5819 53.4568 12.0884 54.3125C12.4848 55.0426 12.7775 55.8244 12.9582 56.6353C13.0369 56.9461 13.0954 57.2589 13.1459 57.5717C13.3069 58.7755 13.3697 59.9904 13.3336 61.2043C13.3059 61.5696 13.3575 61.9365 13.4849 62.2799C13.6498 62.5863 13.8473 62.8739 14.0742 63.1376C14.8815 64.1911 15.1378 65.3838 15.3557 66.5684C15.4263 66.972 15.497 67.3575 15.5737 67.7429C17.176 67.8136 18.5645 67.6642 20.1668 67.7429C19.7895 67.1375 19.4302 66.6289 19.0912 66.1063C18.7061 65.5312 18.3608 64.9304 18.0579 64.3081C17.7869 63.698 17.5793 63.0617 17.4384 62.4091C17.0038 60.6789 16.5713 58.9481 16.1407 57.2165C15.9793 56.5808 15.8199 55.9411 15.6645 55.3054C15.5471 54.9506 15.5018 54.576 15.5313 54.2035C15.606 53.7555 15.9349 53.4427 16.0378 53.0108C16.1831 52.4437 15.945 51.7556 15.8824 51.1199C15.7694 50.016 16.3668 48.791 16.9783 47.9252C17.0529 47.8163 17.1256 47.7234 17.2002 47.6225L12.0702 47.7497C12.0541 47.8405 12.038 47.9656 12.0158 48.1048C11.976 48.4567 11.9085 48.8049 11.8139 49.1462C11.4689 50.0301 11.0491 50.6981 11.0915 51.7152Z" fill="#9D9D9C" stroke="#231F20" stroke-width="0.020181" stroke-miterlimit="10"/>
<path d="M14.9762 52.9906C13.7654 52.9906 12.5121 52.7888 11.495 52.1269C10.385 51.4085 9.65248 50.2117 9.24482 48.9524C8.83717 47.6931 8.72415 46.3612 8.61316 45.0434C11.2147 44.5586 13.8609 44.3556 16.5059 44.438C18.6895 44.5066 21.0265 44.8416 22.645 46.3087C21.7025 46.6034 21.1052 47.5297 20.7359 48.4459C20.3666 49.3621 20.1304 50.353 19.5432 51.1461C18.526 52.5124 16.6855 52.9906 14.9762 52.9906Z" fill="white" stroke="#231F20" stroke-width="0.020181" stroke-miterlimit="10"/>
<path d="M17.8379 54.7504C17.6098 54.6798 17.5654 54.3791 17.5654 54.145C17.5654 52.698 17.1901 51.2934 17.182 49.8485C17.7947 49.6522 18.429 49.5316 19.0709 49.4893C18.6532 50.1552 18.7097 50.7183 18.6673 51.5073C18.6249 52.2964 18.4655 53.3236 18.3848 54.1127C18.3775 54.2749 18.3326 54.4331 18.2536 54.5748C18.2113 54.6439 18.1485 54.6979 18.074 54.7294C17.9994 54.7609 17.9168 54.7682 17.8379 54.7504Z" fill="white" stroke="#231F20" stroke-width="0.020181" stroke-miterlimit="10"/>
<path d="M15.7936 55.7736C15.5636 55.703 15.5212 55.4023 15.5192 55.1682C15.5192 53.7212 15.1156 52.2359 15.1014 50.7889C15.5939 50.6093 16.504 50.5407 17.0267 50.5124C16.6469 51.1175 16.4422 51.8161 16.4354 52.5305C16.391 53.3176 16.4193 54.3468 16.3365 55.1258C16.3312 55.288 16.2869 55.4465 16.2074 55.5879C16.1666 55.6584 16.1048 55.7143 16.0305 55.7476C15.9562 55.7809 15.8734 55.79 15.7936 55.7736Z" fill="white" stroke="#231F20" stroke-width="0.020181" stroke-miterlimit="10"/>
<path d="M13.3719 55.6343C13.1439 55.5617 13.1015 55.263 13.0995 55.0289C13.0914 53.5839 13.0827 52.1376 13.0732 50.69C13.6299 50.509 14.2081 50.4024 14.7927 50.3732C14.3949 51.0077 14.1708 51.7357 14.1428 52.4841C14.0964 53.2711 13.9995 54.1975 13.9168 54.9825C13.9115 55.1447 13.8672 55.3032 13.7876 55.4446C13.7474 55.5162 13.6854 55.5732 13.6107 55.6073C13.536 55.6414 13.4524 55.6509 13.3719 55.6343Z" fill="white" stroke="#231F20" stroke-width="0.020181" stroke-miterlimit="10"/>
<path d="M10.7968 54.7666C10.5688 54.6959 10.5264 54.3952 10.5244 54.1611C10.5163 52.7135 10.5076 51.2672 10.4982 49.8222C10.99 49.6405 11.5063 49.5337 12.0299 49.5054C11.6122 50.1734 12.1631 50.466 11.9996 51.2389C11.8261 52.0663 11.4245 53.3418 11.3417 54.1268C11.3359 54.2892 11.2909 54.4477 11.2106 54.589C11.1689 54.6582 11.1066 54.7126 11.0323 54.7444C10.9581 54.7763 10.8757 54.7841 10.7968 54.7666Z" fill="white" stroke="#231F20" stroke-width="0.020181" stroke-miterlimit="10"/>
<path d="M53.6995 64.189C53.8166 64.3909 53.9538 64.6128 54.0668 64.8247C54.4049 65.4371 54.5917 66.1214 54.6117 66.8206C54.6278 67.2424 54.5996 67.6703 54.5774 68.1223C56.093 68.0961 57.6772 68.1223 59.2674 68.1223C58.8739 67.5532 58.4804 66.972 58.1454 66.3726C57.7213 65.6671 57.4293 64.8902 57.2836 64.0801C57.2111 63.5126 57.1949 62.9394 57.2352 62.3687C57.2796 61.2305 57.3179 60.0923 57.3603 58.9521C57.3765 58.5828 57.3886 58.2155 57.4047 57.8462C57.435 57.0228 57.4693 56.1691 57.8527 55.4709C58.1444 55.0022 58.3833 54.5027 58.5651 53.9815C58.8033 53.249 58.7205 52.4881 58.6277 51.693C58.5893 51.3782 58.777 50.6254 58.9708 50.018C59.0374 49.8162 59.104 49.6144 59.1726 49.4711L55.1606 49.2693C55.1606 49.3359 55.1283 49.578 55.1061 49.8162C55.0839 50.0543 55.0557 50.3146 55.0476 50.3469C54.872 50.9039 54.5875 51.1138 54.4623 51.6869C54.1495 53.0996 54.3614 53.59 54.4966 54.9744C54.5451 55.4144 54.42 57.5818 54.2948 59.0712C54.2404 59.7311 54.1899 60.2558 54.1495 60.4394C53.7601 62.3768 53.9861 62.0963 53.5623 63.18C53.4614 63.4383 53.5603 63.9328 53.6995 64.189Z" fill="#9D9D9C" stroke="#231F20" stroke-width="0.020181" stroke-miterlimit="10"/>
<path d="M83.0971 18.5377C82.5502 18.7778 81.9448 18.8384 81.3676 18.9918C80.7904 19.1451 80.2011 19.4236 79.9065 19.9423C79.8481 20.0538 79.8047 20.1726 79.7774 20.2955C79.5755 22.4145 77.3112 21.9907 77.7431 20.2268C77.9702 19.5067 78.3996 18.8671 78.9802 18.3843C79.7339 17.7865 80.6219 17.3812 81.5674 17.2037C82.0417 17.1048 82.524 17.0463 82.9902 16.9071C83.8973 16.6352 84.6909 16.0748 85.2504 15.3108C85.0365 16.6447 84.3322 17.9989 83.0971 18.5377Z" fill="#57443A" stroke="#231F20" stroke-width="0.020181" stroke-miterlimit="10"/>
<path d="M0.113027 55.2711C0.139262 55.2469 0.163479 55.2166 0.189715 55.1924C0.209896 55.7575 0.236131 56.3218 0.26842 56.8856C2.06654 55.2711 3.00496 52.924 3.46509 50.5265C3.53976 50.1431 3.60232 49.7576 3.65277 49.3762C3.80413 48.2138 3.89494 46.5025 3.94136 44.9748C3.99584 43.1181 3.98374 41.544 3.92925 41.5077C3.96759 40.9749 4.02208 40.4401 4.09271 39.9093C4.11693 39.7297 4.13913 39.5521 4.16738 39.3766C4.36919 38.0729 4.682 36.7914 4.81317 35.4857C4.97462 33.9257 4.8717 32.3576 4.85757 30.7956C4.84545 29.4125 4.90405 28.0296 5.03315 26.6525C5.10176 25.8957 5.21881 25.0884 5.59821 24.4487C5.72387 24.2336 5.88332 24.04 6.07045 23.8756C6.15521 23.8069 6.24199 23.7444 6.33078 23.6859C6.08653 24.1794 5.95619 24.7215 5.94936 25.2721C5.95045 25.5704 5.98566 25.8677 6.0543 26.158C6.30656 27.2882 6.97456 28.3376 7.36001 29.4556C7.82417 30.7936 7.8827 32.2305 7.99168 33.6432C8.02195 34.0669 8.06231 34.4928 8.10873 34.9146C8.15514 35.3363 8.20963 35.8065 8.26412 36.2546C8.18945 37.2535 8.10469 38.2505 7.99975 39.2454C7.85848 40.6298 7.68694 42.0142 7.48917 43.3885C7.46899 43.5036 7.44881 43.6186 7.43468 43.7336C7.33283 44.4575 7.19339 45.1756 7.01693 45.8849C6.92385 46.2574 6.81067 46.6245 6.67789 46.9848C6.4608 47.6522 6.09271 48.2607 5.60225 48.7627C5.32779 49.019 4.99682 49.2269 4.75263 49.5114C4.53135 49.7632 4.36869 50.061 4.27636 50.3833L4.24003 50.5205C4.24003 50.5709 4.21784 50.6254 4.20573 50.6799C4.05033 51.4872 4.18353 52.3872 4.28847 53.2187C4.46468 54.6444 4.48566 56.085 4.35103 57.5152C4.23581 58.8052 3.99382 60.0808 3.62855 61.3234C3.49914 61.6601 3.44473 62.021 3.46912 62.3808C3.54177 62.6766 3.65735 62.9601 3.8122 63.2224C4.29856 64.2476 4.36516 65.3939 4.3147 66.5442C4.29654 66.9478 4.26425 67.3393 4.23398 67.7328C5.81213 67.8041 7.3923 67.8714 8.97449 67.9346C8.72329 67.2918 8.43142 66.6656 8.10065 66.0598C7.81166 65.5235 7.59646 64.9505 7.46092 64.3566C7.36401 63.7406 7.33962 63.1155 7.38826 62.4939C7.44343 61.1323 7.49657 59.7701 7.54769 58.4072C7.54769 58.2276 7.54769 58.052 7.56586 57.8724C7.59815 57.0854 7.62438 56.3023 7.65667 55.5153C7.64737 55.1446 7.71115 54.7756 7.84436 54.4295C8.04616 53.9936 8.44978 53.6869 8.69397 53.2611C9.00072 52.7041 8.96238 52.028 9.08347 51.4004C9.1829 50.8923 9.37882 50.4079 9.66064 49.9736C10.1199 49.2769 10.6811 48.6531 11.3256 48.123C11.376 48.123 11.6323 48.1068 12.0198 48.0907C13.4325 48.0403 16.4858 47.9474 16.9783 47.9111C17.0166 47.9111 17.0408 47.9111 17.0408 47.9111C17.6604 47.9736 18.2759 48.0241 18.8954 48.0766C19.515 48.129 20.183 48.1775 20.8308 48.2158C25.5088 48.5172 30.2015 48.5118 34.8788 48.1997C35.3429 48.1694 35.8071 48.1412 36.2713 48.1028C38.247 47.9474 40.2308 47.7375 42.2125 47.8808C43.2487 47.9663 44.2785 48.1159 45.2962 48.3288C46.17 48.5044 47.0418 48.7002 47.9197 48.8757C48.178 48.9262 48.4343 48.9726 48.6926 49.019C49.2254 49.1199 49.7683 49.2208 50.3071 49.2995L50.4201 49.3197C50.4529 49.6012 50.4454 49.8859 50.3979 50.1653C50.184 50.7304 49.8833 50.9423 49.7158 51.5215C49.3021 52.9462 49.4777 53.4487 49.514 54.8473C49.5261 55.2348 49.3122 56.9461 49.1104 58.3769C49.0761 58.607 49.0438 58.829 49.0135 59.0389C48.9167 59.6786 48.8299 60.1892 48.7794 60.3728C48.2527 62.3304 48.4989 62.0438 47.9964 63.1396C47.9009 63.4735 47.9245 63.8302 48.063 64.1487C48.1639 64.3626 48.285 64.5765 48.3859 64.7905C48.6762 65.3966 48.8148 66.0643 48.7895 66.7359C48.775 67.2006 48.7346 67.6641 48.6684 68.1243C50.186 68.0941 51.7642 68.1243 53.3545 68.1243C52.9785 67.5312 52.635 66.9181 52.3252 66.2879C51.9658 65.5862 51.74 64.8239 51.6592 64.0397C51.6298 63.4615 51.6542 62.8819 51.7319 62.3082C51.8469 61.2628 51.9599 60.2134 52.0689 59.166C52.1194 58.6897 52.1739 58.2135 52.2243 57.7392C52.3091 56.9037 52.412 56.042 52.8398 55.3377C53.1654 54.8656 53.4414 54.361 53.6632 53.8322C53.9518 53.0915 53.9195 52.3186 53.8852 51.5154C53.865 51.021 54.1233 50.4095 54.4584 49.8H54.4805L55.086 49.8242C56.539 49.8908 57.7801 49.9958 58.9567 50.0261C59.108 50.0261 59.2574 50.0261 59.4087 50.0261C60.1998 50.0261 61.0394 50.0039 61.7174 49.5942C62.2946 49.2511 62.6881 48.6739 63.0655 48.1169C63.1987 47.9252 63.336 47.7375 63.4692 47.5478C63.7275 47.1805 63.9838 46.8153 64.2502 46.452C66.65 43.1104 69.272 39.9341 72.0985 36.9448C72.3326 36.6945 72.5687 36.4463 72.8069 36.2001C73.602 35.3821 74.4032 34.5809 75.2104 33.7965L75.4688 33.8429L77.8905 34.291C78.0764 34.3279 78.2666 34.3387 78.4555 34.3232L79.3556 34.2566L81.1376 34.1235L84.3766 33.8833C84.7441 33.856 85.1125 33.9213 85.4482 34.073L85.6137 34.1477C85.6832 34.1804 85.7546 34.2087 85.8276 34.2324C86.0501 34.3072 86.2832 34.3454 86.5178 34.3454H88.0738C88.3848 34.3439 88.6919 34.2751 88.9739 34.1436C89.1571 34.0631 89.3278 33.9563 89.4804 33.8268L90.1968 33.2214C90.4158 33.042 90.5963 32.8203 90.7276 32.5695C90.8409 32.3591 90.9186 32.1313 90.9576 31.8955C91.0104 31.5788 90.9932 31.2543 90.9072 30.945L90.6569 30.0509C90.5219 29.5717 90.228 29.1525 89.8235 28.8623C89.713 28.7842 89.5954 28.7166 89.4723 28.6605L89.1999 28.5313C88.9813 28.4302 88.7809 28.2938 88.6066 28.1277L84.1889 23.8897C83.948 23.6563 83.7631 23.3713 83.6481 23.0562C83.1416 21.811 83.3212 20.8202 81.63 19.8575C81.5647 19.827 81.4973 19.8013 81.4282 19.7808C80.9317 19.6012 80.4535 19.4055 79.7088 19.1754L79.5675 19.125L78.1548 18.6305C77.5015 18.5867 76.8457 18.5928 76.1932 18.6487C76.161 18.6506 76.1295 18.6588 76.1004 18.6729C76.0843 18.6729 76.0722 18.685 76.0722 18.6931C75.8445 18.3004 75.6726 17.8779 75.5616 17.4378C75.4647 17.0544 75.4102 16.6306 75.158 16.338C75.1086 16.2705 75.0442 16.2154 74.97 16.1769C74.8958 16.1384 74.8137 16.1175 74.7301 16.116C74.6292 16.1223 74.5302 16.1462 74.4375 16.1866C74.1672 16.3184 73.9469 16.5344 73.8099 16.8021C73.5788 17.2242 73.4346 17.6882 73.3857 18.1669C73.3369 18.6455 73.3843 19.1291 73.5253 19.5891L72.3952 19.8273C72.3872 19.8255 72.379 19.8255 72.371 19.8273C72.2465 19.853 72.1248 19.8909 72.0077 19.9403C71.7098 20.0622 71.4425 20.2482 71.2247 20.4852C70.0138 20.6607 68.803 20.8141 67.5921 20.8888C65.2794 21.0462 62.9747 20.9433 60.7871 20.2571C60.5732 20.1885 60.3593 20.1138 60.1453 20.0351C58.9244 19.5831 57.2514 18.6124 55.9618 18.8243C55.1546 18.9554 54.4725 19.3389 53.6733 19.5649C53.5098 19.6113 53.3484 19.6537 53.189 19.6961C51.515 20.168 49.786 20.417 48.0469 20.4367C46.39 20.4367 44.83 20.2228 42.9512 19.9584C40.7213 19.6471 38.4651 19.5673 36.2188 19.7203C35.2097 19.7869 34.2229 19.8999 33.2239 20.021C32.2613 20.134 31.2946 20.2511 30.328 20.3278C30.32 20.3297 30.3117 20.3297 30.3037 20.3278C28.1787 20.4993 26.0476 20.4993 23.9023 20.4993H14.4173C12.601 20.4993 10.7444 20.4993 9.06732 21.2016C7.33579 21.3449 5.87469 22.5194 4.92619 24.0431C4.50443 24.7271 4.18808 25.4706 3.98777 26.2488C3.33189 28.8098 4.02612 31.5161 3.78596 34.1517C3.60635 36.1597 3.52966 38.0103 3.28346 39.7883C3.09995 41.3077 2.71094 42.7952 2.12709 44.2099C1.72347 45.1382 1.25527 46.0262 0.88394 46.9747C0.813307 47.1462 0.748727 47.3158 0.68213 47.4893C-0.157398 49.9756 -0.02824 52.6617 0.113027 55.2711Z" fill="white" stroke="#231F20" stroke-width="0.1" stroke-miterlimit="10"/>
<path d="M54.5774 68.1243C56.093 68.0981 57.6772 68.1243 59.2674 68.1243C58.8739 67.5552 58.4804 66.974 58.1454 66.3747L54.6117 66.8227C54.6258 67.2445 54.5996 67.6723 54.5774 68.1243Z" fill="#3C3C3B" stroke="#231F20" stroke-width="0.020181" stroke-miterlimit="10"/>
<path d="M48.6744 68.1243C50.192 68.0941 51.7702 68.1243 53.3605 68.1243C52.9845 67.5312 52.641 66.9181 52.3312 66.2879L48.7955 66.7359C48.781 67.2006 48.7406 67.6641 48.6744 68.1243Z" fill="#3C3C3B" stroke="#231F20" stroke-width="0.020181" stroke-miterlimit="10"/>
<path d="M15.3557 66.5603C15.4263 66.9639 15.497 67.3494 15.5737 67.7349C17.176 67.8055 18.5645 67.6561 20.1669 67.7349C19.7895 67.1294 19.4302 66.6209 19.0912 66.0982L15.3557 66.5603Z" fill="#3C3C3B" stroke="#231F20" stroke-width="0.020181" stroke-miterlimit="10"/>
<path d="M4.23401 67.7268C5.81216 67.7981 7.39233 67.8654 8.97452 67.9286C8.72332 67.2857 8.43145 66.6595 8.10068 66.0538L4.31473 66.5381C4.29657 66.9357 4.26428 67.3332 4.23401 67.7268Z" fill="#3C3C3B" stroke="#231F20" stroke-width="0.020181" stroke-miterlimit="10"/>
<path d="M78.1487 25.4174C78.2496 26.2993 77.9268 27.1691 77.7593 28.0409C77.5918 28.9127 77.618 29.9278 78.2618 30.5434C78.4934 30.7213 78.7144 30.9127 78.9237 31.1165C79.5291 31.8652 78.96 33.0075 79.2244 33.9418C79.2574 34.0519 79.3007 34.1586 79.3535 34.2607L81.1355 34.1275L84.3746 33.8873C84.742 33.8601 85.1104 33.9253 85.4462 34.077L85.6117 34.1517C85.6811 34.1845 85.7526 34.2128 85.8256 34.2365C86.048 34.3112 86.2811 34.3494 86.5158 34.3495H88.0717C88.3828 34.348 88.6899 34.2791 88.9718 34.1477C89.1551 34.0671 89.3257 33.9604 89.4783 33.8308L90.1948 33.2254C90.6006 32.8902 90.8709 32.419 90.9556 31.8995C91.0083 31.5828 90.9911 31.2584 90.9051 30.949L90.6549 30.055C90.5199 29.5757 90.226 29.1566 89.8214 28.8663C89.4037 30.2184 88.3018 30.1761 87.1474 30.0005C86.2413 29.3264 86.0637 27.9703 85.1475 27.3144C84.7802 27.0541 84.3403 26.933 83.9568 26.6868C82.5078 25.7443 82.6471 23.4356 81.3494 22.2893C81.0514 22.0366 80.7094 21.8409 80.3404 21.7122C79.7693 21.4902 79.1497 21.361 78.5725 21.1471C78.3478 21.0623 78.1304 20.959 77.9227 20.8383C77.5563 20.6221 77.2321 20.341 76.9661 20.0089C76.6414 19.5946 76.3752 19.1376 76.175 18.6507L76.1165 18.5074C76.1016 18.5609 76.0914 18.6156 76.0862 18.6709C76.0701 18.6709 76.058 18.683 76.058 18.6911C75.8303 18.2984 75.6585 17.8759 75.5474 17.4358C75.4506 17.0524 75.3961 16.6286 75.1438 16.336C75.0944 16.2685 75.0301 16.2134 74.9559 16.1749C74.8817 16.1364 74.7996 16.1155 74.716 16.114C74.615 16.1202 74.516 16.1442 74.4233 16.1846C75.6907 17.3612 75.4808 20.6244 76.724 22.5275C77.3193 23.4457 78.0357 24.3417 78.1487 25.4174Z" fill="#3C3C3B" stroke="#231F20" stroke-width="0.020181" stroke-miterlimit="10"/>
<path d="M59.4108 22.8524C59.5864 24.2126 61.4692 24.7514 61.8446 26.0813C62.1493 27.1489 61.3421 28.2104 61.2513 29.3103C61.2286 29.7571 61.3205 30.2022 61.5183 30.6035C61.7161 31.0048 62.0132 31.3488 62.3814 31.6028C62.6727 31.8074 63.0055 31.9452 63.3562 32.0065C63.3901 32.0138 63.4245 32.0192 63.4591 32.0226C63.9878 32.0932 64.6155 32.0226 64.9585 32.4262C65.2007 32.7067 65.2007 33.1124 65.2128 33.4817C65.2505 34.893 65.5948 36.2792 66.2219 37.5441C66.904 37.6107 67.5013 37.0578 67.8161 36.4523C68.131 35.8469 68.2844 35.1587 68.6355 34.5735C69.0754 33.8409 69.8564 33.2173 69.8322 32.3536C69.8161 31.8309 69.5255 31.1992 69.919 30.8521C70.1793 30.6261 70.5769 30.7008 70.9119 30.6059C71.8907 30.3294 71.8362 28.9067 71.4084 27.9824C70.9805 27.0581 70.3993 25.9522 70.9825 25.1207C71.4184 24.5012 72.3205 24.3801 72.7988 23.7989C73.6767 22.7394 72.6172 21.1753 72.3629 19.8111C72.2384 19.8368 72.1168 19.8747 71.9997 19.9241C71.7018 20.046 71.4344 20.232 71.2166 20.469C70.0058 20.6446 68.7949 20.798 67.5841 20.8726C65.2713 21.03 62.9667 20.9271 60.779 20.241C60.1373 21.0987 59.2836 21.8595 59.4108 22.8524Z" fill="#3C3C3B" stroke="#231F20" stroke-width="0.020181" stroke-miterlimit="10"/>
<path d="M62.8556 37.9538C62.4298 38.9507 61.227 39.3523 60.5489 40.1979C59.7962 41.1384 59.8043 42.4562 59.5096 43.6287C59.215 44.8012 58.216 46.0504 57.0455 45.7477C56.4199 45.5883 55.9901 45.0333 55.4896 44.6236C54.2303 43.5924 52.4907 43.4612 50.8782 43.2574C49.2658 43.0535 47.4959 42.6217 46.5877 41.2716C46.3056 40.8832 46.1678 40.4086 46.1982 39.9295C46.2992 39.0093 47.2174 38.3816 48.1235 38.1899C49.0296 37.9982 49.9681 38.1132 50.8863 37.9982C51.8045 37.8832 52.7813 37.4392 53.1062 36.5734C53.191 36.3413 53.2333 36.079 53.4129 35.9095C53.573 35.7829 53.77 35.712 53.974 35.7077C55.9658 35.5059 57.9698 37.1203 59.8466 36.4261C60.0162 35.855 59.7175 35.2637 59.5056 34.7047C59.2937 34.1457 59.2089 33.4191 59.6711 33.0397C60.3592 32.4727 61.7315 33.1366 62.1331 32.3395C62.198 32.1529 62.2525 31.9629 62.2966 31.7704C62.3549 31.6448 62.4417 31.5345 62.5499 31.4481C62.6582 31.3618 62.785 31.3018 62.9204 31.2728C63.0558 31.2439 63.1961 31.2468 63.3302 31.2813C63.4643 31.3158 63.5885 31.381 63.6931 31.4717C63.1523 32.3475 62.5933 33.288 62.5812 34.3132C62.565 35.5321 63.342 36.8095 62.8556 37.9538Z" fill="#3C3C3B" stroke="#231F20" stroke-width="0.020181" stroke-miterlimit="10"/>
<path d="M26.316 25.1187C26.99 25.5385 27.8356 25.8937 28.0536 26.6585C28.3502 27.714 27.2463 28.608 26.8851 29.6413C26.3039 31.2779 27.6923 32.9852 29.2281 33.8046C30.7639 34.6239 32.558 34.9973 33.8697 36.1436C34.689 36.9148 35.3029 37.8783 35.6557 38.9467C36.0715 40.0889 36.3096 41.3361 37.0684 42.2846C37.8272 43.2331 39.3791 43.6973 40.2449 42.8497C40.8301 42.2725 40.8644 41.3563 40.8644 40.537V35.7965C40.8644 34.7168 40.9633 33.4494 41.8735 32.8642C42.933 32.1861 44.6988 32.7511 45.3305 31.6674C45.8774 30.7512 44.9995 29.6493 44.9652 28.5757C44.9289 27.4335 45.8774 26.5011 46.8521 25.9017C47.8269 25.3024 48.9328 24.822 49.6129 23.9018C50.293 22.9815 50.2365 21.3913 49.179 20.9534C48.9106 20.8403 48.6059 20.8181 48.3455 20.6769C48.231 20.6154 48.1269 20.5364 48.0368 20.4428C46.3799 20.4428 44.8199 20.2289 42.9411 19.9645C40.7112 19.6532 38.455 19.5734 36.2087 19.7264C35.1996 19.793 34.2128 19.906 33.2138 20.0271C32.2512 20.1401 31.2845 20.2571 30.3179 20.3338C30.1569 20.6777 29.9679 21.0077 29.7528 21.3207C29.0727 22.2026 27.884 22.479 26.7842 22.6223C26.2938 22.6849 25.7408 22.7676 25.4603 23.1773C25.0143 23.8271 25.6419 24.701 26.316 25.1187Z" fill="#3C3C3B" stroke="#231F20" stroke-width="0.020181" stroke-miterlimit="10"/>
<path d="M23.0992 36.967C23.3878 36.8459 23.7207 36.7651 23.9165 36.527C24.2293 36.1416 24.0315 35.5765 24.0134 35.08C24.0132 34.5806 24.205 34.1002 24.5491 33.7381C24.8931 33.376 25.3631 33.16 25.8619 33.1346C25.9412 33.1283 26.0207 33.1437 26.092 33.179C26.2656 33.2799 26.2535 33.5281 26.2373 33.7299C26.094 35.5281 27.4482 37.0457 28.6429 38.4038C29.8376 39.762 31.002 41.54 30.4148 43.2473C29.6075 43.1928 28.77 43.1867 28.0031 43.4491C26.3887 44.0142 25.424 45.6367 24.0255 46.6114C23.5474 46.9819 22.9631 47.1891 22.3585 47.2027C21.7531 47.1846 21.1477 46.8133 20.9882 46.2341C20.9141 45.8602 20.9571 45.4726 21.1113 45.1241C21.4383 44.2483 22.0074 43.4854 22.4271 42.6499C22.8469 41.8144 23.1214 40.8336 22.8045 39.9497C22.5765 39.316 22.0518 38.7388 22.1365 38.0729C22.2011 37.5684 22.6249 37.1647 23.0992 36.967Z" fill="#3C3C3B" stroke="#231F20" stroke-width="0.020181" stroke-miterlimit="10"/>
<path d="M8.00781 39.2393C8.2964 39.2777 8.698 39.0375 8.97852 38.8216C9.73127 38.2606 10.7242 38.1859 11.6485 38.0143C12.5727 37.8428 13.5757 37.4654 13.9572 36.6118C14.3204 35.8045 14.0157 34.8217 14.389 34.0266C14.9622 32.7976 16.7643 32.6704 17.5393 31.5625C18.4959 30.1983 17.4 28.386 17.2083 26.7312C17.1438 26.1313 17.2041 25.5245 17.3854 24.949C17.5667 24.3736 17.8651 23.8418 18.2618 23.3872C18.5725 23.032 18.962 22.4912 18.623 22.1541C18.4714 22.0345 18.2833 21.9704 18.0902 21.9725C16.9581 21.8474 15.6988 21.7606 14.8068 22.4669C14.4032 22.7818 14.1327 23.2237 13.7977 23.6092C12.4436 25.153 10.1006 25.7645 9.1884 27.601C8.84532 28.2992 8.75249 29.0903 8.66975 29.8633C8.48206 31.5423 8.30044 33.2274 8.11679 34.9085C8.16321 35.3565 8.21769 35.8005 8.27218 36.2485C8.18944 37.2475 8.10468 38.2444 8.00781 39.2393Z" fill="#3C3C3B" stroke="#231F20" stroke-width="0.020181" stroke-miterlimit="10"/>
<path d="M22.4675 28.0308C22.2919 28.3779 21.8782 28.5394 21.6602 28.8623C21.2748 29.4314 21.4948 30.4566 20.8369 30.6563C20.3727 30.7996 19.9449 30.2991 19.8621 29.8229C19.7794 29.3466 19.8863 28.8421 19.7552 28.3759C19.5675 27.7019 18.9055 27.0339 19.2466 26.4264C19.9792 25.6192 20.8752 24.7413 21.963 24.824C21.4524 25.1268 21.6502 25.9158 21.9831 26.4103C22.3161 26.9047 22.7399 27.5 22.4675 28.0308Z" fill="#3C3C3B" stroke="#231F20" stroke-width="0.020181" stroke-miterlimit="10"/>
<path d="M44.4486 47.1301C44.5758 47.6196 44.88 48.0445 45.3023 48.3228C46.1761 48.4984 47.0479 48.6941 47.9258 48.8697C48.1841 48.9201 48.4404 48.9666 48.6987 49.013C49.2719 49.1219 49.849 49.2148 50.4242 49.3137C50.457 49.5952 50.4495 49.8799 50.402 50.1593C50.1881 50.7243 49.8874 50.9362 49.7199 51.5154C49.3062 52.9402 49.4817 53.4427 49.5181 54.8412C49.5302 55.2287 49.3163 56.9401 49.1144 58.3709C49.2289 58.3261 49.3396 58.2721 49.4454 58.2094C50.1111 57.8094 50.6573 57.2381 51.0271 56.5552C51.397 55.8723 51.577 55.1027 51.5483 54.3266C51.4938 53.1581 50.9832 51.8585 51.6492 50.8959C51.8232 50.6767 52.0105 50.4684 52.2102 50.2723C52.7165 49.7303 52.9873 49.0096 52.963 48.2683C52.9465 47.9008 52.8379 47.5433 52.6471 47.2287C52.4563 46.9141 52.1895 46.6526 51.8712 46.4682C51.2435 46.1311 50.4867 46.1675 49.7744 46.2098L47.5403 46.3511C46.4687 46.4157 45.3265 46.5025 44.4486 47.1301Z" fill="#3C3C3B" stroke="#231F20" stroke-width="0.020181" stroke-miterlimit="10"/>
<path d="M63.8567 45.7739C63.9099 46.0394 64.0524 46.2786 64.2603 46.452C66.6569 43.1107 69.2755 39.9344 72.0986 36.9447C72.3327 36.6945 72.5688 36.4463 72.8069 36.2001C71.8955 36.7176 71.0123 37.2835 70.1612 37.8953C68.9504 38.753 67.79 39.7398 67.1341 41.0617C66.8354 41.6671 66.6437 42.3331 66.2158 42.8517C65.788 43.3704 65.1886 43.6589 64.6821 44.0827C64.1755 44.5065 63.7316 45.1261 63.8567 45.7739Z" fill="#3C3C3B" stroke="#231F20" stroke-width="0.020181" stroke-miterlimit="10"/>
<path d="M74.4657 20.0533C74.5929 20.2147 74.6675 20.4125 74.7926 20.576C74.8484 20.6625 74.928 20.731 75.0218 20.7733C75.1156 20.8155 75.2197 20.8297 75.3214 20.8141C75.3819 20.5679 75.2386 20.3217 75.1317 20.0896C74.9582 19.6554 74.8435 19.2 74.7906 18.7355L74.4395 16.5297C74.272 16.5035 74.1691 16.7033 74.1226 16.8647C73.9433 17.4977 73.8157 18.1443 73.7412 18.798C73.7135 18.9507 73.7184 19.1075 73.7553 19.2582C73.8603 19.6012 74.2417 19.7728 74.4657 20.0533Z" fill="#706F6F" stroke="#231F20" stroke-width="0.020181" stroke-miterlimit="10"/>
<path d="M82.5623 23.9926C82.7601 24.0173 82.9548 24.0619 83.1435 24.1258L82.861 23.5405C81.7228 23.3387 80.9317 23.6132 80.179 24.4265C80.5554 24.261 80.9475 24.1339 81.3495 24.0471C81.2628 24.1109 81.1934 24.1952 81.1473 24.2923C81.1011 24.3895 81.0798 24.4966 81.0851 24.6041C81.1174 24.9915 81.5392 25.2741 82.0255 25.2317C82.5119 25.1893 82.8792 24.8422 82.8469 24.4547C82.8366 24.3614 82.8058 24.2716 82.7566 24.1917C82.7074 24.1117 82.641 24.0437 82.5623 23.9926Z" fill="#1D1D1B" stroke="#231F20" stroke-width="0.020181" stroke-miterlimit="10"/>
<path d="M82.6774 24.37C82.6844 24.3959 82.6857 24.4231 82.6811 24.4496C82.6766 24.476 82.6664 24.5012 82.6512 24.5234C82.6356 24.545 82.6133 24.5609 82.5877 24.5685C82.5622 24.5762 82.5348 24.5752 82.5099 24.5657C82.5149 24.5324 82.5126 24.4983 82.5032 24.4659C82.4938 24.4336 82.4775 24.4036 82.4554 24.3781C82.4251 24.3438 82.3868 24.3195 82.3585 24.2832C82.3426 24.267 82.3323 24.2461 82.329 24.2236C82.3257 24.2011 82.3297 24.1782 82.3404 24.1581C82.413 24.1434 82.4885 24.1572 82.5513 24.1966C82.614 24.2361 82.6592 24.2981 82.6774 24.37Z" fill="white" stroke="#231F20" stroke-width="0.020181" stroke-miterlimit="10"/>
<path d="M81.856 24.9431C81.8524 24.9555 81.8445 24.9663 81.8338 24.9734C81.7911 24.9989 81.7417 25.011 81.692 25.0081C81.6424 25.0053 81.5947 24.9875 81.5553 24.9573C81.4856 24.9156 81.4281 24.8564 81.3884 24.7856C81.3487 24.7148 81.3283 24.6348 81.3293 24.5536C81.3339 24.4726 81.3671 24.3957 81.4228 24.3367C81.4785 24.2776 81.5533 24.2401 81.634 24.2307C81.6622 24.3094 81.6118 24.3922 81.6178 24.4749C81.6257 24.538 81.6501 24.5979 81.6885 24.6485L81.8398 24.8886C81.8461 24.8961 81.8508 24.9048 81.8536 24.9142C81.8564 24.9236 81.8572 24.9334 81.856 24.9431Z" fill="white" stroke="#231F20" stroke-width="0.020181" stroke-miterlimit="10"/>
<path d="M89.5692 30.1175C89.6482 30.1341 89.7225 30.168 89.7867 30.2169C89.851 30.2658 89.9035 30.3283 89.9405 30.4001C90.1158 30.6693 90.227 30.9752 90.2654 31.2941C90.2804 31.3789 90.2748 31.4661 90.2493 31.5484C90.2266 31.603 90.196 31.654 90.1585 31.6997C90.0111 31.9015 89.8618 32.1034 89.7145 32.3052C89.6538 32.4033 89.5699 32.4851 89.4703 32.5433C89.4202 32.5714 89.3617 32.581 89.3052 32.5703C89.2488 32.5596 89.1979 32.5293 89.1615 32.4848C89.0707 32.3455 89.2019 32.174 89.2382 32.0105C89.251 31.9287 89.2468 31.8451 89.226 31.7649C89.2052 31.6847 89.1681 31.6096 89.1171 31.5443C89.0263 31.4071 88.9153 31.288 88.8144 31.1508C88.7387 31.0564 88.7027 30.9362 88.714 30.8157C88.7252 30.6951 88.783 30.5837 88.8749 30.505C89.001 30.3579 89.1581 30.2408 89.3351 30.1619C89.4084 30.1286 89.4887 30.1134 89.5692 30.1175Z" fill="#1D1D1B" stroke="#231F20" stroke-width="0.020181" stroke-miterlimit="10"/>
<path d="M76.9782 20.019H77.0105C77.4928 20.019 78.0074 19.6335 78.1527 18.6426C78.1548 18.6259 78.1548 18.6089 78.1527 18.5922C78.1798 18.4683 78.2239 18.3488 78.2839 18.237C78.5765 17.7183 79.1658 17.4297 79.743 17.2865C80.3201 17.1432 80.9276 17.0705 81.4745 16.8324C82.7096 16.2915 83.4119 14.9394 83.6258 13.6034C83.0663 14.368 82.2728 14.9291 81.3655 15.2018C80.9013 15.339 80.417 15.4036 79.9427 15.4984C78.9975 15.6747 78.1098 16.0801 77.3576 16.679C76.7784 17.1589 76.3491 17.7949 76.1205 18.5115C76.1055 18.5649 76.0954 18.6196 76.0902 18.6749C75.961 19.5084 76.4454 19.9927 76.9782 20.019Z" fill="#57443A" stroke="#231F20" stroke-width="0.020181" stroke-miterlimit="10"/>
<path opacity="0.2" d="M54.4866 49.8L55.092 49.8243C56.545 49.8909 57.7862 49.9958 58.9627 50.0261C59.1141 50.0261 59.2634 50.0261 59.4148 50.0261C60.2059 50.0261 61.0454 50.0039 61.7235 49.5942C62.3006 49.2511 62.6942 48.6739 63.0716 48.1169C63.2048 47.9252 63.342 47.7375 63.4752 47.5478C63.7335 47.1806 63.9898 46.8153 64.2562 46.452C66.654 43.1106 69.2741 39.9343 72.0985 36.9448C72.3326 36.6945 72.5687 36.4463 72.8069 36.2001C73.602 35.3821 74.4032 34.5809 75.2104 33.7965L75.4687 33.843L77.8904 34.291C78.0764 34.3279 78.2666 34.3387 78.4555 34.3233L79.3556 34.2567L81.1376 34.1235L84.3766 33.8833C84.744 33.8561 85.1125 33.9213 85.4482 34.073L85.6137 34.1477C85.6831 34.1804 85.7546 34.2087 85.8276 34.2324C86.05 34.3072 86.2831 34.3454 86.5178 34.3455H88.0737C88.3848 34.3439 88.6919 34.2751 88.9738 34.1437C89.1571 34.0631 89.3277 33.9564 89.4804 33.8268L90.1968 33.2214C90.4157 33.042 90.5963 32.8203 90.7276 32.5695C87.4123 32.9332 84.0613 32.7972 80.7864 32.1659C79.4888 31.9137 78.175 31.5746 77.0711 30.842C75.9672 30.1095 75.0974 28.9148 75.053 27.5889C74.9279 30.725 72.6716 33.3061 70.5385 35.6047C68.028 38.3063 65.5195 41.0085 63.013 43.7114C61.9031 44.9082 60.7729 46.121 59.3805 46.9707C57.988 47.8203 56.2645 48.2764 54.6985 47.8243C54.6258 48.4863 54.5572 49.1421 54.4866 49.8Z" fill="#1D1D1B" stroke="#231F20" stroke-width="0.020181" stroke-miterlimit="10"/>
<path opacity="0.2" d="M14.4435 38.7792C14.4637 38.6339 14.4758 38.4906 14.4818 38.3473C14.458 38.4901 14.4452 38.6345 14.4435 38.7792Z" fill="#1D1D1B" stroke="#231F20" stroke-width="0.020181" stroke-miterlimit="10"/>
<path opacity="0.2" d="M7.54775 58.4052C7.54775 58.2256 7.54775 58.05 7.56592 57.8704C7.59821 57.0833 7.62444 56.3003 7.65673 55.5132C7.64743 55.1425 7.71121 54.7736 7.84441 54.4275C8.04622 53.9916 8.44984 53.6848 8.69403 53.259C9.00078 52.702 8.96244 52.026 9.08353 51.3983C9.18296 50.8902 9.37888 50.4059 9.6607 49.9715C10.12 49.2749 10.6812 48.6511 11.3256 48.121C11.3761 48.121 11.6324 48.1048 12.0199 48.0887C13.4325 48.0382 16.4859 47.9454 16.9783 47.9091C17.0167 47.9091 17.0409 47.9091 17.0409 47.9091C17.6604 47.9716 18.276 48.0221 18.8955 48.0745C19.5151 48.127 20.1831 48.1754 20.8309 48.2138C25.5088 48.5152 30.2016 48.5098 34.8788 48.1976C35.343 48.1674 35.8072 48.1391 36.2713 48.1008C38.247 47.9454 40.2308 47.7355 42.2126 47.8788C43.2487 47.9643 44.2786 48.1139 45.2962 48.3268C46.1701 48.5024 47.0419 48.6981 47.9198 48.8737C48.1781 48.9242 48.4344 48.9706 48.6927 49.017C49.2255 49.1179 49.7683 49.2188 50.3072 49.2975C51.5665 47.4106 52.0589 45.0716 52.5069 42.8255C46.0526 44.4903 39.4596 45.5616 32.8103 46.0262C31.0202 46.1513 29.1777 46.228 27.5007 45.566C26.1364 45.0292 24.9902 44.0384 23.6259 43.4995C22.4252 43.0212 21.1114 42.9163 19.8238 42.7488C18.5363 42.5813 17.2205 42.3452 16.1408 41.6166C15.1842 40.989 14.4517 39.9134 14.4436 38.7913C14.159 41.0435 12.7605 43.0293 11.3014 44.8072C9.74546 46.6901 8.02604 48.5488 7.26522 50.8716C6.47211 53.3176 6.84142 55.8947 7.54775 58.4052Z" fill="#1D1D1B" stroke="#231F20" stroke-width="0.020181" stroke-miterlimit="10"/>
<path opacity="0.2" d="M7.43471 43.7276C7.33286 44.4514 7.19342 45.1695 7.01696 45.8789C9.4391 43.0469 10.6899 39.3977 10.5143 35.6754C10.3932 33.4555 9.76157 31.2941 9.38419 29.1024C9.0068 26.9108 8.90388 24.5758 9.78781 22.5376C9.07956 22.5347 8.38537 22.7351 7.78763 23.115C7.18989 23.4949 6.71369 24.0383 6.41557 24.6808C6.21808 25.1492 6.09484 25.6456 6.05029 26.152C6.30256 27.2821 6.97054 28.3315 7.356 29.4495C7.82016 30.7875 7.87869 32.2244 7.98767 33.6371C8.01794 34.0609 8.0583 34.4867 8.10472 34.9085C8.15113 35.3303 8.20562 35.8005 8.26011 36.2485C8.18544 37.2475 8.10068 38.2444 7.99574 39.2393C7.85447 40.6237 7.68293 42.0082 7.48516 43.3825C7.46902 43.4975 7.44883 43.6045 7.43471 43.7276Z" fill="#1D1D1B" stroke="#231F20" stroke-width="0.020181" stroke-miterlimit="10"/>
<path opacity="0.2" d="M0.113027 55.2711C0.139262 55.2469 0.163479 55.2166 0.189715 55.1924C0.209896 55.7574 0.236131 56.3218 0.26842 56.8855C2.06654 55.2711 3.00496 52.924 3.46509 50.5265C3.53975 50.1431 3.60232 49.7576 3.65277 49.3762C3.80412 48.2138 3.89494 46.5024 3.94136 44.9747C3.32247 47.1274 2.70224 49.2767 2.08067 51.4226C2.03829 50.0099 1.99187 48.5972 1.94546 47.1967C1.59431 49.013 1.24451 50.8292 0.896048 52.6455L0.88394 46.9807C0.813307 47.1523 0.748727 47.3218 0.68213 47.4953C-0.157398 49.9756 -0.02824 52.6617 0.113027 55.2711Z" fill="#1D1D1B" stroke="#231F20" stroke-width="0.020181" stroke-miterlimit="10"/>
<path opacity="0.2" d="M53.5381 29.9036C53.1318 29.5244 52.7615 29.1082 52.4322 28.6605C51.9977 28.0288 51.7341 27.2955 51.6671 26.5317C51.6002 25.768 51.7321 24.9999 52.0501 24.3023C52.3681 23.6047 52.8614 23.0014 53.4818 22.551C54.1022 22.1006 54.8287 21.8186 55.5905 21.7323C54.4786 23.0125 53.9006 24.6707 53.9757 26.3647C54.0508 28.0587 54.7733 29.6592 55.9941 30.836C56.2141 31.0499 56.4623 31.2638 56.5511 31.5584C56.6399 31.8531 56.4785 32.2466 56.1717 32.2648C56.066 32.2555 55.9633 32.2243 55.8702 32.1732C55.7771 32.1222 55.6956 32.0523 55.6309 31.9681L53.5381 29.9036Z" fill="#1D1D1B" stroke="#231F20" stroke-width="0.020181" stroke-miterlimit="10"/>
<path opacity="0.2" d="M51.5665 31.7603C51.0195 31.508 50.4222 31.2053 50.2063 30.6422C49.9479 29.9682 50.3596 29.2094 50.8924 28.723L53.2132 30.7129C53.522 30.9772 53.8469 31.2678 53.9438 31.6614C54.0406 32.0549 53.7742 32.5594 53.3686 32.5392C53.2442 32.5254 53.1236 32.4878 53.0134 32.4282L51.5665 31.7603Z" fill="#1D1D1B" stroke="#231F20" stroke-width="0.020181" stroke-miterlimit="10"/>
<path opacity="0.2" d="M12.044 29.6211C12.3911 30.8178 13.0369 31.96 13.0289 33.2072C13.0233 33.9374 12.7905 34.6476 12.3629 35.2395L10.928 28.9349C10.6193 27.5767 10.3105 26.154 10.6697 24.8079C11.0289 23.4618 12.2842 22.2469 13.6646 22.4427C12.8218 23.4118 12.2326 24.5749 11.9497 25.8277C11.6669 27.0805 11.6993 28.3839 12.044 29.6211Z" fill="#1D1D1B" stroke="#231F20" stroke-width="0.020181" stroke-miterlimit="10"/>
<path d="M30.221 35.8852C30.2198 35.9034 30.2198 35.9216 30.221 35.9397C30.221 36.1779 30.2715 37.1506 30.3482 38.4866C30.3482 38.5693 30.3603 38.6521 30.3643 38.7408C30.3643 38.8841 30.3804 39.0335 30.3925 39.1868C30.3925 39.2434 30.3926 39.2918 30.4026 39.3483C30.447 40.0546 30.5035 40.8276 30.5641 41.6287C30.6024 42.0929 30.6408 42.5732 30.6852 43.0576C30.7175 43.4228 30.7518 43.7881 30.7841 44.1473C30.7962 44.2341 30.8002 44.3168 30.8123 44.4056C30.8446 44.7104 30.8729 45.0111 30.9112 45.3057C30.9273 45.449 30.9455 45.5923 30.9617 45.7356C31.0666 46.6094 31.1816 47.4368 31.3088 48.1573C31.3532 48.4176 31.4036 48.6598 31.4521 48.8919C31.4521 48.9262 31.4642 48.9423 31.4642 48.9524C31.4864 49.0695 31.5126 49.1805 31.5408 49.2894C31.7184 50.0422 31.9102 50.6052 32.1321 50.8797C32.1785 50.9416 32.2305 50.999 32.2875 51.0512C32.4974 51.2625 32.7417 51.4366 33.01 51.5659C33.1872 51.6513 33.3724 51.7189 33.563 51.7677C33.8457 51.8508 34.1407 51.8842 34.4348 51.8665H34.4731C34.9135 51.8358 35.3364 51.6817 35.6933 51.4219C36.0502 51.1621 36.3267 50.807 36.4912 50.3974L36.5195 50.3308C36.549 50.2533 36.5726 50.1737 36.5901 50.0926V50.0765C36.6244 49.9716 36.6507 49.8505 36.6789 49.7294C36.8807 48.7022 36.9493 47.0958 36.9433 45.3279C36.9433 44.9404 36.9332 44.5429 36.9211 44.1413C36.8888 42.5934 36.8121 40.993 36.7193 39.6006C36.7072 39.4896 36.7031 39.3846 36.6971 39.2797C36.6961 39.2304 36.692 39.1812 36.685 39.1324C36.685 39.092 36.685 39.0537 36.685 39.0214C36.5901 37.6289 36.5013 36.5028 36.4529 35.9498C36.4307 35.7117 36.4145 35.5805 36.4145 35.5805C36.4145 35.5079 35.7123 35.5139 34.7839 35.5523C34.7133 35.5523 34.6366 35.5523 34.564 35.5623C32.7396 35.6592 30.221 35.8509 30.221 35.8852Z" fill="#824639"/>
<path d="M30.8506 67.0144C30.8616 67.0366 30.8769 67.0564 30.8956 67.0727C30.9143 67.089 30.936 67.1014 30.9595 67.1092L31.565 67.2929C31.7379 67.3476 31.9168 67.3815 32.0978 67.3938L33.129 67.4644L33.5124 67.4886H33.571L33.686 67.4987L36.0916 67.7692L37.032 67.8781C38.1414 67.9813 39.2596 67.8237 40.2973 67.418C40.3367 67.3998 40.3692 67.3693 40.3899 67.3311C40.4106 67.293 40.4185 67.2491 40.4123 67.2061C40.3841 66.6128 40.4547 66.1365 40.1479 65.8822C39.8513 65.5392 39.2378 65.3596 38.5032 65.0871C38.3781 65.0427 38.2449 64.9902 38.0996 64.9378C37.4296 64.6734 36.7414 64.5342 36.4407 64.3162C36.36 64.2577 36.2772 64.1991 36.1965 64.1366C35.8278 63.8912 35.5144 63.5716 35.2763 63.1982C35.197 63.0592 35.136 62.9107 35.0946 62.7562L32.2249 62.6432H32.0473H31.8939C31.8901 62.956 31.8214 63.2645 31.6921 63.5493C31.5529 63.8783 31.3894 64.1104 31.3612 64.187V64.2092C31.2946 64.3767 31.1109 65.2445 30.9817 65.971C30.8829 66.4836 30.8122 66.9397 30.8506 67.0144Z" fill="#33312F"/>
<path d="M30.9738 65.9569L32.8022 65.3172L36.1906 64.1325L36.679 49.7556L36.7072 48.9605V48.8919L35.7446 48.9161L33.1513 48.9807L31.4622 48.9665C31.4359 49.0997 30.0394 59.7997 30.9738 65.9569Z" fill="#824639"/>
<path opacity="0.1" d="M29.8456 38.4422C29.8456 38.4644 29.8678 38.5633 29.89 38.7187C29.9061 38.8397 29.9344 38.9931 29.9626 39.1868C29.9848 39.314 30.007 39.4573 30.0292 39.6127C30.231 40.993 30.5963 43.3522 30.9071 45.3562C30.9293 45.4894 30.9515 45.6145 30.9676 45.7416C31.2098 47.3218 31.4096 48.6093 31.458 48.906C31.458 48.9403 31.4701 48.9565 31.4701 48.9665C31.4358 49.0937 30.1887 58.6433 30.8405 64.8934C30.8788 65.2586 30.9232 65.6179 30.9737 65.9589C30.8955 66.3034 30.8543 66.6551 30.8506 67.0083C30.8745 67.0527 30.914 67.0865 30.9616 67.1032L31.567 67.2848C31.7403 67.3406 31.92 67.3738 32.1018 67.3837L33.129 67.4563L33.5165 67.4785C33.2837 66.865 33.0819 66.2522 32.9111 65.6401C32.8768 65.5291 32.8445 65.4241 32.8162 65.3192C32.5706 64.4403 32.3753 63.5482 32.231 62.6472C31.7022 59.3335 32.0816 54.7444 33.0382 51.58C33.2338 50.8788 33.4967 50.1983 33.8232 49.5478C33.8111 49.346 33.801 49.1562 33.7889 48.9665C33.5185 42.8598 35.1532 40.5511 36.2409 39.651C36.395 39.5256 36.5575 39.411 36.7273 39.3079C36.8169 39.2542 36.9092 39.205 37.0038 39.1606L37.1349 39.088L36.7111 39.0496L34.9211 38.8882L31.4177 38.5794L30.3582 38.4866L29.8456 38.4422Z" fill="#1D1D1B"/>
<path d="M24.9053 47.5882C24.9161 47.7886 24.9262 47.9824 24.9356 48.1694C24.9517 48.5246 24.982 48.8576 25.0103 49.1562C25.0204 49.2551 25.0385 49.3581 25.0506 49.4489C25.0862 49.9193 25.2065 50.3794 25.4058 50.807C25.4462 50.8746 25.4921 50.9387 25.543 50.9988C25.8097 51.3344 26.1493 51.6049 26.536 51.7899C26.7409 51.8912 26.957 51.9684 27.1797 52.0199C27.3122 52.0516 27.4473 52.0712 27.5833 52.0784H27.6237C28.0636 52.1005 28.5009 51.999 28.8861 51.7853C29.2713 51.5717 29.589 51.2545 29.8033 50.8696L29.8315 50.807C29.8704 50.7356 29.9041 50.6614 29.9324 50.5851C29.9324 50.5851 29.9324 50.5709 29.9324 50.5669C30.1052 50.1299 30.2402 49.6789 30.336 49.2188C30.5378 48.2965 30.7154 47.1381 30.8607 45.895C30.8809 45.7235 30.9011 45.5499 30.9172 45.3743C30.9184 45.3555 30.9184 45.3366 30.9172 45.3178C30.9374 45.116 30.9576 44.9142 30.9778 44.7225C31.1796 42.6338 31.3188 40.4461 31.4016 38.8054C31.4016 38.7328 31.4016 38.6621 31.4157 38.5935C31.4581 37.6753 31.4884 36.9488 31.5025 36.5371C31.5025 36.2909 31.5146 36.1557 31.5146 36.1557C31.5146 36.0911 30.9798 36.0225 30.2271 35.9539C28.4229 35.7944 25.3311 35.6491 25.3291 35.6855C25.3291 35.6855 25.2363 36.8277 25.1273 38.4886C25.0708 39.3543 25.0183 40.3654 24.9719 41.4269C24.9477 41.8992 24.9316 42.3815 24.9154 42.8658C24.9053 43.2311 24.8952 43.5964 24.8811 43.9617C24.8811 44.0484 24.8811 44.1332 24.8811 44.22C24.8609 45.4046 24.865 46.569 24.9053 47.5882Z" fill="#824639"/>
<path d="M24.3423 67.2162C24.3634 67.2604 24.4011 67.2945 24.4472 67.3111L25.0527 67.4947C25.2257 67.549 25.4045 67.5829 25.5854 67.5956L26.6167 67.6662L27.0627 67.6945L27.1737 67.7046L27.325 67.7207L29.5793 67.977L30.5197 68.084C31.6291 68.1867 32.7471 68.0291 33.785 67.6239C33.8244 67.6056 33.8569 67.5752 33.8776 67.537C33.8983 67.4988 33.9062 67.455 33.9 67.412C33.8677 66.8227 33.9383 66.3424 33.6316 66.0881C33.339 65.745 32.7255 65.5654 31.9868 65.293C31.8617 65.2486 31.7285 65.1961 31.5933 65.1436C30.9233 64.8793 30.2331 64.74 29.9344 64.522L29.7326 64.3727C29.3485 64.1202 29.0213 63.7902 28.772 63.404C28.6933 63.2653 28.6335 63.1167 28.5944 62.9621L25.9689 62.8712L25.5269 62.8531H25.3735C25.3685 63.165 25.2999 63.4727 25.1717 63.7572C25.0345 64.0861 24.867 64.3182 24.8428 64.3949V64.4171C24.7802 64.5806 24.5905 65.4524 24.4634 66.1789C24.3823 66.5187 24.3417 66.8669 24.3423 67.2162Z" fill="#33312F"/>
<path d="M24.4653 66.1729L26.5581 65.4585L29.7184 64.3788L29.8133 64.3485L30.3279 49.2128V49.1704V49.1018L29.228 49.128L26.7781 49.1946L25.0849 49.1785C25.0849 49.1886 25.0667 49.2794 25.0465 49.4428C24.8084 51.138 23.6076 60.5565 24.4653 66.1729Z" fill="#824639"/>
<path opacity="0.1" d="M24.4634 66.1728C24.3706 66.7016 24.306 67.1557 24.3443 67.2223C24.3535 67.2444 24.3675 67.2642 24.3853 67.2803C24.4031 67.2963 24.4243 67.3082 24.4473 67.3151L25.0527 67.5008C25.2258 67.5549 25.4046 67.5888 25.5855 67.6017L26.6187 67.6703L27.0627 67.7005L27.1757 67.7106L27.3251 67.7268C27.0304 66.97 26.7782 66.2172 26.5643 65.4584C26.3132 64.6083 26.1144 63.7436 25.9689 62.8692C25.4038 59.5414 25.6521 54.9482 26.5299 51.7899C26.7078 51.1246 26.9456 50.4769 27.2403 49.8545C27.204 49.6285 27.1737 49.4065 27.1475 49.1906C26.4089 43.3482 28.5077 40.7509 30.0233 39.6127C30.1524 39.5118 30.2816 39.427 30.4007 39.3463C30.9072 39.0214 31.2927 38.864 31.3936 38.7954L30.3643 38.7429L29.884 38.7187L25.1274 38.4765C25.0709 39.3423 25.0184 40.3533 24.972 41.4148C24.9478 41.8871 24.9316 42.3694 24.9155 42.8537C24.9054 43.219 24.8953 43.5843 24.8812 43.9496C24.8812 44.0363 24.8812 44.1211 24.8812 44.2079C24.8569 45.4046 24.861 46.5691 24.9013 47.5882C24.9599 48.4782 25.0002 49.0876 25.0063 49.1563C25.0164 49.2551 25.0345 49.3581 25.0466 49.4489C24.8085 51.14 23.6057 60.5565 24.4634 66.1728Z" fill="#1D1D1B"/>
<path d="M51.4614 20.8303C51.4614 20.8303 52.6723 20.7758 53.2777 20.7536C53.3161 20.7536 53.3544 20.7536 53.3887 20.7536C53.5158 20.7536 53.5905 20.7536 53.6026 20.7536C54.509 20.8924 55.4358 20.7293 56.2403 20.2894C56.882 19.9867 57.4612 19.6981 58.5227 19.8858C58.5005 19.8414 58.4783 19.8031 58.4602 19.7647C58.2402 19.3288 58.2947 19.4115 58.3169 19.4277C58.2462 19.2453 58.1591 19.0696 58.0566 18.903L57.209 18.5801L56.8982 18.4691L56.7387 18.2673L56.6237 18.12L55.762 17.9969L53.984 18.2854L53.8246 18.2511C53.7742 18.235 53.7136 18.2249 53.647 18.2067L53.3383 18.1422L52.6743 17.9928L52.0023 17.8314L51.748 19.1855L51.5321 20.4125L51.4715 20.7495L51.4614 20.8303Z" fill="#F2C799"/>
<path d="M53.9638 18.2713C54.7327 17.6659 55.994 17.8293 56.1434 17.8677L56.6116 17.9766C56.8851 18.0318 57.1413 18.1523 57.3583 18.3278L56.9708 18.9615C56.9708 18.9615 56.9425 19.2864 56.9405 19.2864C56.9385 19.2864 55.8972 19.9685 55.2736 20.0936L55.1424 20.1158C54.8584 20.1625 54.5678 20.1508 54.2885 20.0814C54.0092 20.012 53.747 19.8864 53.5178 19.7122C53.3844 19.6063 53.2675 19.4811 53.1707 19.3409C53.134 19.2909 53.1009 19.2383 53.0718 19.1835C53.0718 19.1714 51.7136 19.1956 51.748 19.1835L51.9962 17.7708C52.315 17.8475 53.9598 18.2753 53.9638 18.2713Z" fill="#FFC990"/>
<path d="M58.7186 18.8626C59.1363 18.9393 59.2998 19.2239 59.2171 19.468C59.1962 19.5405 59.1561 19.606 59.101 19.6575C59.0459 19.709 58.978 19.7447 58.9043 19.7607C58.3412 19.8515 56.6843 19.4297 56.642 19.1976L56.7388 18.2269C56.7388 18.2875 57.203 18.1946 57.3624 18.3137C57.7708 18.5902 58.2329 18.7772 58.7186 18.8626Z" fill="#FFC990"/>
<path d="M34.2431 14.5741C34.3753 14.8057 34.5491 15.011 34.7557 15.1796C34.8389 15.2439 34.9274 15.3013 35.0201 15.3511L36.1966 16.0413L37.2057 16.6467L37.6799 16.9272L37.9846 17.1109L38.1723 17.2199L43.0158 20.0694L43.1389 20.136C43.3054 20.2231 43.4834 20.2863 43.6676 20.3237C43.7038 20.3348 43.7409 20.3422 43.7786 20.3459H43.8512L43.9945 20.3681H44.0107C44.0348 20.3711 44.0592 20.3711 44.0833 20.3681H44.1984C44.532 20.3501 44.8564 20.2517 45.1439 20.0813C45.4313 19.9109 45.6733 19.6735 45.8492 19.3893C45.8693 19.3683 45.8863 19.3446 45.8996 19.3187L45.9218 19.2904C46.0622 19.0429 46.1499 18.769 46.1795 18.486C46.209 18.2029 46.1797 17.9168 46.0933 17.6457C45.9436 17.1455 45.6048 16.7235 45.1489 16.4691L44.8341 16.2814L44.2084 15.9101L37.5487 12.0011L37.361 11.8901L37.0684 11.7185C37.0451 11.7042 37.0208 11.6914 36.9958 11.6802C36.6393 11.4963 36.2351 11.4259 35.8374 11.4784C35.8208 11.4743 35.8035 11.4743 35.7869 11.4784C35.7763 11.4758 35.7653 11.4758 35.7546 11.4784C35.593 11.5033 35.4351 11.548 35.2844 11.6116C35.2682 11.6157 35.253 11.6232 35.24 11.6338C35.2329 11.6337 35.2258 11.6351 35.2192 11.6379C35.2126 11.6407 35.2066 11.6448 35.2017 11.6499C34.9841 11.7453 34.7873 11.8824 34.6225 12.0535C34.5758 12.1219 34.5193 12.1831 34.455 12.2352C34.385 12.3185 34.3222 12.4076 34.2673 12.5016L34.2471 12.5399C34.0693 12.8493 33.9754 13.1997 33.9747 13.5565C33.974 13.9133 34.0665 14.2641 34.2431 14.5741Z" fill="#0083AF"/>
<path d="M42.0511 18.1966C42.036 18.5319 42.1014 18.8658 42.2418 19.1706C42.3822 19.4754 42.5937 19.742 42.8583 19.9483C42.8875 19.9741 42.9185 19.9977 42.9512 20.019C42.9734 20.0351 43.0016 20.0573 43.0278 20.0735L43.1509 20.14C43.3175 20.2271 43.4955 20.2903 43.6797 20.3277C43.7159 20.3388 43.753 20.3462 43.7907 20.3499H43.8633L44.0066 20.3721H44.0228L46.6624 20.7758L53.2737 21.7707V21.6072L53.2838 20.7515V20.5033L53.3 19.4943L53.3222 18.132V17.8374L45.5908 16.4409L44.8401 16.3036L44.4647 16.2371C44.1602 16.1877 43.8485 16.2067 43.5522 16.2926C43.2559 16.3784 42.9824 16.529 42.7514 16.7335C42.3941 17.0467 42.1578 17.4751 42.0834 17.9444V17.9827C42.0671 18.0531 42.0563 18.1246 42.0511 18.1966Z" fill="#0083AF"/>
<path d="M24.8327 13.7064C24.8771 14.0495 24.9255 14.8002 25.0022 15.8052C25.0526 16.3582 25.1031 16.9939 25.1576 17.678C25.1798 17.9868 25.208 18.3016 25.2343 18.6285C25.2746 19.1916 25.3231 19.7768 25.3735 20.3621C25.3897 20.5941 25.4119 20.8303 25.428 21.0623V21.0744C25.4623 21.4781 25.5007 21.9019 25.5269 22.3055C25.545 22.5477 25.5672 22.7797 25.5834 23.0179C25.6157 23.4054 25.6379 23.7807 25.6661 24.144C25.6883 24.4043 25.7045 24.6525 25.7267 24.8947C25.7267 25.04 25.7489 25.1833 25.759 25.3145C25.7872 25.6858 25.8155 26.0269 25.8377 26.3417C25.8538 26.5637 25.87 26.7614 25.8821 26.9471C25.8803 26.9612 25.8803 26.9754 25.8821 26.9895C25.8821 27.0944 25.8982 27.1913 25.9043 27.2841V27.3225C25.9043 27.3225 25.9043 27.3326 25.9043 27.3447V27.3608L25.545 32.2365L25.5289 32.513V32.5514V32.5998L25.5027 32.9812L25.4462 33.6835V33.6997L25.3977 34.4504L25.3816 34.6381L25.3634 34.9045V34.961L25.3352 35.3646V35.3928L25.319 35.6633V35.7178L25.3089 35.8671V35.9276V35.9882V36.077L25.2968 36.2102V36.2324V36.2768V36.303L25.2201 37.4089L25.1434 38.3695L25.1313 38.5835L25.1213 38.7328L25.1091 38.9871L25.093 39.1889H25.1253L29.9909 39.1727H30.7154L31.4157 39.1626L34.7133 39.1505H36.7314H37.8978L37.5931 30.8763L37.4841 27.9218L38.2126 17.2138L38.2732 16.3138L38.2893 16.0655L38.3781 14.8244L38.4003 14.4046C38.4677 14.0849 38.47 13.7549 38.4073 13.4342C38.3445 13.1135 38.2179 12.8087 38.035 12.5379C37.8923 12.3228 37.7174 12.1309 37.5164 11.9688C37.4829 11.9426 37.4478 11.9183 37.4115 11.8961L37.1188 11.7246C37.0955 11.7103 37.0712 11.6975 37.0462 11.6863C36.9856 11.652 36.9089 11.6257 36.8444 11.5874C36.7798 11.549 36.689 11.5147 36.5961 11.4643C36.2309 11.2766 35.684 10.9961 35.3853 10.8851L35.3469 11.1898L35.2864 11.6439V11.6721L34.8828 14.7316L34.8384 15.0625L34.8222 15.1836L34.4408 18.0554L34.2975 18.7859L34.2753 18.8788L34.2652 18.8505L34.0211 18.0554L32.0615 11.8215L31.5469 10.2191L31.4379 9.85989C31.2027 9.85114 30.9673 9.86738 30.7356 9.90832C30.6589 9.92043 30.5762 9.93658 30.4995 9.95272H30.4087C30.373 9.95353 30.3376 9.95965 30.3037 9.97088C29.7407 10.0698 29.1494 10.2353 28.7236 10.3341C27.4098 10.649 25.991 11.0243 25.2787 11.9486C25.2787 11.9486 25.2666 11.9607 25.2605 11.9648C25.2544 11.9688 25.2605 11.9648 25.2605 11.9769C25.2144 12.0417 25.1719 12.1091 25.1334 12.1787C24.8691 12.6415 24.7635 13.178 24.8327 13.7064Z" fill="#0083AF"/>
<path d="M34.2148 18.899L35.3389 11.1999L30.2775 9.91843L34.2148 18.899Z" fill="#FCFCFB"/>
<path d="M30.6691 10.0375C31.1696 11.995 34.1584 13.2886 34.7154 11.874C34.7698 11.7408 35.5549 7.53505 35.5549 7.53505L31.4178 6.03359L30.8911 8.82866L30.6731 9.93457L30.6691 10.0375Z" fill="#FFC990"/>
<path opacity="0.1" d="M29.9505 39.1849C28.2372 34.3414 27.1252 29.5141 27.4985 24.6707L28.5076 15.0484L25.1596 17.6719C25.1818 17.9807 25.21 18.2976 25.2363 18.6225C25.4885 21.7889 25.7872 25.5667 25.9042 27.2801V27.3003C25.9067 27.3129 25.9108 27.3251 25.9164 27.3366V27.3528L25.4562 33.6977L25.4017 34.4484L25.3876 34.6381L25.1858 37.413L25.1152 38.3756L25.0566 39.1949L29.9505 39.1849Z" fill="#1D1D1B"/>
<path d="M23.9326 24.4669H23.973C24.5058 24.5958 25.068 24.5079 25.5361 24.2226C26.0041 23.9373 26.3398 23.4779 26.4694 22.9452L26.5844 22.4972L27.4663 19.0786L27.9224 17.3067L28.8084 13.8759C28.9379 13.3428 28.8503 12.7801 28.565 12.3116C28.2796 11.843 27.8198 11.507 27.2867 11.3775H27.2484C26.7164 11.2504 26.1558 11.3391 25.6891 11.6243C25.2224 11.9094 24.8877 12.3678 24.758 12.8991L24.6591 13.2826L22.4211 21.9604C22.3369 22.2915 22.3369 22.6384 22.4211 22.9694C22.5138 23.3326 22.7033 23.6637 22.9696 23.9274C23.2358 24.1911 23.5687 24.3776 23.9326 24.4669Z" fill="#0083AF"/>
<path d="M25.747 33.0276C25.808 33.0102 25.872 33.0056 25.9348 33.0141C25.9977 33.0226 26.0581 33.044 26.1123 33.077C26.1665 33.11 26.2133 33.1538 26.2498 33.2057C26.2862 33.2577 26.3116 33.3166 26.3242 33.3788C26.5903 34.3759 26.9631 35.3414 27.4361 36.2586C27.4918 36.3713 27.5018 36.501 27.4643 36.6209C27.4267 36.7408 27.3443 36.8416 27.2343 36.9024C27.1796 36.9334 27.119 36.9528 27.0564 36.9595C26.9938 36.9661 26.9305 36.9597 26.8705 36.9408C26.8105 36.9218 26.755 36.8907 26.7075 36.8494C26.6601 36.8081 26.6216 36.7574 26.5946 36.7006C26.0934 35.7418 25.6956 34.7324 25.4079 33.6896C25.3725 33.5568 25.3876 33.4157 25.4502 33.2934C25.5128 33.1711 25.6186 33.0764 25.747 33.0276Z" fill="#F2C799"/>
<path d="M23.5071 31.2772L23.4656 33.6118L26.0241 33.6573L26.0657 31.3228L23.5071 31.2772Z" fill="#FFD2A1"/>
<path d="M25.9688 33.9822C26.0846 33.9848 26.1946 34.0333 26.2748 34.1168C26.355 34.2004 26.3988 34.3124 26.3966 34.4282L26.3724 37.5502C26.3703 37.666 26.3224 37.7762 26.2392 37.8568C26.156 37.9373 26.0442 37.9817 25.9284 37.98C25.8126 37.9779 25.7024 37.93 25.6218 37.8468C25.5413 37.7636 25.497 37.6519 25.4986 37.5361L25.5289 34.41C25.5315 34.2953 25.5791 34.1862 25.6614 34.1062C25.7436 34.0262 25.854 33.9816 25.9688 33.9822Z" fill="#F2C799"/>
<path d="M25.0728 35.2274C25.1303 35.2282 25.187 35.2403 25.2397 35.2631C25.2924 35.2858 25.3401 35.3188 25.38 35.36C25.42 35.4013 25.4514 35.45 25.4724 35.5035C25.4935 35.5569 25.5038 35.6139 25.5027 35.6714L25.4724 37.2979C25.4716 37.3553 25.4595 37.4119 25.4367 37.4645C25.4139 37.5171 25.3809 37.5647 25.3396 37.6044C25.2984 37.6442 25.2496 37.6754 25.1962 37.6963C25.1428 37.7171 25.0858 37.7271 25.0284 37.7258C24.971 37.725 24.9143 37.7129 24.8616 37.6901C24.8089 37.6673 24.7612 37.6344 24.7212 37.5931C24.6813 37.5519 24.6499 37.5031 24.6289 37.4497C24.6078 37.3963 24.5975 37.3392 24.5986 37.2818L24.6289 35.6552C24.6296 35.5979 24.6418 35.5413 24.6646 35.4887C24.6874 35.4361 24.7203 35.3885 24.7616 35.3487C24.8029 35.3089 24.8517 35.2777 24.9051 35.2569C24.9585 35.2361 25.0155 35.226 25.0728 35.2274Z" fill="#F2C799"/>
<path d="M24.1989 35.1022C24.2564 35.103 24.3131 35.1151 24.3658 35.1379C24.4185 35.1607 24.4662 35.1936 24.5061 35.2349C24.5461 35.2761 24.5775 35.3249 24.5985 35.3783C24.6196 35.4317 24.6299 35.4888 24.6288 35.5462L24.6046 36.9104C24.6035 36.9677 24.5912 37.0242 24.5683 37.0767C24.5454 37.1291 24.5124 37.1766 24.4712 37.2163C24.43 37.2561 24.3813 37.2873 24.328 37.3082C24.2747 37.3291 24.2178 37.3393 24.1606 37.3383H24.1525C24.0953 37.3372 24.0388 37.3249 23.9863 37.302C23.9338 37.2791 23.8864 37.2461 23.8466 37.2049C23.8069 37.1637 23.7757 37.115 23.7548 37.0617C23.7338 37.0084 23.7236 36.9515 23.7247 36.8943L23.7489 35.5321C23.7497 35.4741 23.762 35.4169 23.7851 35.3638C23.8083 35.3107 23.8418 35.2627 23.8837 35.2227C23.9256 35.1827 23.9751 35.1514 24.0292 35.1307C24.0833 35.11 24.141 35.1003 24.1989 35.1022Z" fill="#F2C799"/>
<path d="M23.3675 35.0861C23.4191 35.0871 23.47 35.0984 23.5171 35.1194C23.5643 35.1403 23.6068 35.1705 23.6421 35.2081C23.6775 35.2457 23.7049 35.29 23.7229 35.3383C23.7409 35.3867 23.7491 35.4382 23.7469 35.4897L23.7268 36.7006C23.7257 36.7522 23.7144 36.8032 23.6935 36.8505C23.6726 36.8977 23.6424 36.9403 23.6049 36.9758C23.5673 37.0113 23.523 37.039 23.4747 37.0572C23.4263 37.0755 23.3748 37.0839 23.3231 37.082C23.2715 37.0807 23.2207 37.0692 23.1736 37.0482C23.1264 37.0271 23.0839 36.997 23.0485 36.9595C23.013 36.922 22.9854 36.8778 22.967 36.8296C22.9487 36.7813 22.9401 36.7299 22.9417 36.6784L22.9639 35.4675C22.965 35.4158 22.9763 35.3649 22.9972 35.3176C23.0181 35.2704 23.0482 35.2277 23.0858 35.1922C23.1234 35.1567 23.1676 35.1291 23.216 35.1108C23.2644 35.0926 23.3159 35.0842 23.3675 35.0861Z" fill="#F2C799"/>
<path d="M22.9861 34.7067L22.9719 35.4877C22.9701 35.5393 22.9785 35.5908 22.9967 35.6392C23.0149 35.6876 23.0426 35.7318 23.0781 35.7694C23.1136 35.807 23.1562 35.8371 23.2035 35.858C23.2507 35.879 23.3017 35.8903 23.3534 35.8913C23.4042 35.8921 23.4548 35.8829 23.5021 35.8641C23.5494 35.8454 23.5926 35.8175 23.6291 35.7821C23.6657 35.7467 23.6949 35.7044 23.7151 35.6577C23.7353 35.611 23.7461 35.5608 23.7469 35.5099V35.6532C23.7458 35.7104 23.756 35.7673 23.777 35.8206C23.7979 35.8739 23.8291 35.9226 23.8688 35.9638C23.9086 36.005 23.956 36.038 24.0085 36.0609C24.061 36.0838 24.1175 36.0961 24.1747 36.0971H24.1848C24.3006 36.0988 24.4124 36.0545 24.4956 35.9739C24.5788 35.8933 24.6267 35.7831 24.6288 35.6673V35.7985C24.6266 35.9143 24.6704 36.0262 24.7506 36.1098C24.8308 36.1934 24.9408 36.2418 25.0566 36.2445H25.0667C25.1825 36.2461 25.2943 36.2018 25.3775 36.1212C25.4607 36.0407 25.5086 35.9304 25.5107 35.8146C25.5096 35.8719 25.5199 35.9288 25.5408 35.9821C25.5617 36.0354 25.5929 36.084 25.6327 36.1252C25.6724 36.1665 25.7198 36.1995 25.7723 36.2223C25.8248 36.2452 25.8813 36.2575 25.9385 36.2586C25.9958 36.2597 26.0527 36.2494 26.106 36.2285C26.1593 36.2076 26.2079 36.1764 26.2492 36.1367C26.2904 36.0969 26.3234 36.0495 26.3463 35.997C26.3692 35.9445 26.3815 35.888 26.3825 35.8308L26.4007 34.7753L22.9861 34.7067Z" fill="#FFD2A1"/>
<path d="M24.31 32.5534L25.1697 32.5695C25.5103 32.5759 25.8344 32.7172 26.0709 32.9624C26.3074 33.2076 26.4369 33.5366 26.431 33.8772L26.4128 34.9267L22.9821 34.8661L23.0002 33.8147C23.0034 33.6459 23.0397 33.4793 23.1073 33.3245C23.1748 33.1698 23.2722 33.0298 23.3938 32.9127C23.5154 32.7956 23.6589 32.7036 23.8161 32.6419C23.9733 32.5802 24.1411 32.5502 24.31 32.5534Z" fill="#FFD2A1"/>
<path d="M31.1897 3.2708L31.1776 3.31924C31.1776 3.35354 31.1614 3.39189 31.1574 3.42821C31.1257 3.57781 31.1054 3.72961 31.0968 3.88229C31.0968 3.93677 31.0968 3.98723 31.0847 4.0397C31.0726 4.09217 31.0847 4.14666 31.0847 4.19711C31.0847 4.21729 31.0847 4.23949 31.0847 4.26169C31.0847 4.28187 31.0847 4.30205 31.0847 4.3303C31.0847 4.35856 31.0847 4.38681 31.0847 4.41506C31.0847 4.44332 31.0847 4.41506 31.0847 4.42717C31.0847 4.43928 31.0847 4.47964 31.0847 4.5079C31.0802 4.76645 31.1108 5.02442 31.1755 5.27477C31.2316 5.49723 31.3372 5.70417 31.4843 5.8802C31.4962 5.897 31.5097 5.91256 31.5247 5.92662C31.6737 6.07645 31.847 6.19996 32.0373 6.29189C32.2391 6.39885 32.4792 6.4937 32.7355 6.59461L32.7961 6.61883L32.9535 6.68542C33.0261 6.71368 33.1008 6.74597 33.1735 6.78027C33.1811 6.7863 33.1901 6.79045 33.1997 6.79238H33.2118C33.1951 7.39917 33.3223 8.00129 33.5829 8.54952C33.8435 9.09774 34.2302 9.57651 34.7112 9.94667C35.0053 10.1822 35.3315 10.3745 35.6799 10.5178C36.3822 10.6732 36.9453 10.1707 37.1955 9.22822L37.4841 8.06782L37.8877 8.05571C37.9509 8.05432 38.013 8.03994 38.0704 8.01348C38.1277 7.98702 38.179 7.94904 38.221 7.9019C38.2631 7.85476 38.2949 7.79948 38.3147 7.73949C38.3344 7.6795 38.3416 7.61609 38.3357 7.5532C38.3065 7.30436 38.2614 7.05764 38.2005 6.81458C38.1437 6.57969 38.0667 6.35012 37.9705 6.12843L38.0209 5.9468C38.0572 5.8136 38.1077 5.61987 38.1622 5.39586C38.2409 5.06893 38.3236 4.68347 38.3761 4.34847C38.4208 4.12675 38.4378 3.90033 38.4266 3.67442C38.4084 3.54728 38.2893 3.41409 38.257 3.28695C37.9846 2.16892 37.1572 1.1296 35.5871 0.78249L35.3651 0.736074C35.0763 0.689059 34.7839 0.666779 34.4913 0.669477H34.2713H34.1946H34.1058L33.9807 0.685622C33.9161 0.685622 33.8515 0.703784 33.7789 0.717911H33.7284C33.6881 0.717911 33.6477 0.734056 33.6073 0.744147C33.5678 0.752092 33.5287 0.762196 33.4903 0.774417L33.3773 0.806707L33.3329 0.820834C33.1782 0.869111 33.0277 0.929853 32.8828 1.00246C32.8357 1.02388 32.7898 1.04814 32.7456 1.07511C32.6037 1.15301 32.4687 1.2428 32.342 1.34352C32.3117 1.36976 32.2794 1.39397 32.2492 1.42223C32.2189 1.45048 32.1987 1.46461 32.1745 1.48681C32.1503 1.50901 32.0958 1.55946 32.0595 1.59578L31.9707 1.69265L31.9121 1.75925C31.8955 1.77707 31.88 1.79595 31.8657 1.81576C31.8435 1.83997 31.8234 1.86823 31.8032 1.89446C31.7236 2.00006 31.6508 2.1106 31.5852 2.22543C31.5804 2.23239 31.5764 2.23983 31.5731 2.24763L31.5186 2.34853C31.4702 2.44137 31.4258 2.55034 31.3854 2.64116C31.3632 2.69564 31.343 2.75013 31.3249 2.80664C31.3204 2.81584 31.3163 2.82527 31.3128 2.83489C31.2906 2.89746 31.2724 2.96405 31.2542 3.0367C31.2361 3.10936 31.2038 3.20219 31.1897 3.2708Z" fill="#FFC990"/>
<path d="M30.4087 5.47459C30.5096 7.73284 31.0787 8.12637 31.0787 8.12637C32.1907 8.50173 32.447 7.48461 32.7921 6.61885C32.8647 6.4352 32.9253 6.25358 32.9717 6.09213C33.0426 5.85654 33.0978 5.61654 33.1372 5.37368C33.1695 5.0629 34.3359 5.38579 34.5498 5.41808C34.5498 5.38176 34.5498 5.34341 34.5599 5.31112C34.572 5.186 34.5841 5.06693 34.5983 4.95392C34.8949 2.46157 35.5831 2.71787 38.245 3.29303C40.7696 0.891493 30.0354 -2.6099 30.4087 5.47459Z" fill="#33312F"/>
<path d="M32.5155 5.29695C32.4025 6.04365 32.6185 6.96188 33.2683 6.75806C33.7123 6.61679 33.904 6.25151 34.0311 5.67232C34.0988 5.44054 34.0747 5.19162 33.9639 4.9771C33.8531 4.76258 33.664 4.59891 33.4358 4.51999C32.9837 4.3545 32.6064 4.71171 32.5155 5.29695Z" fill="#FFC990"/>
<path d="M34.5337 11.0667C34.9174 11.2649 35.3123 11.4407 35.7163 11.5934C35.8346 11.6274 35.9586 11.6368 36.0806 11.6209C36.2026 11.6049 36.3201 11.5641 36.4257 11.5009C36.5313 11.4377 36.6228 11.3535 36.6944 11.2534C36.7661 11.1534 36.8165 11.0397 36.8424 10.9194L37.472 8.07185C36.7839 7.85188 35.9625 7.69447 35.5286 8.44116L35.3631 8.41089C35.1317 8.32014 34.9305 8.16597 34.7827 7.96606C34.6349 7.76616 34.5465 7.52864 34.5276 7.28076C34.4732 6.62282 34.4826 5.96115 34.5559 5.30504L33.8738 4.71777C33.8423 4.97323 33.7958 5.2266 33.7345 5.47658C33.6175 5.96092 32.0434 9.94263 34.5337 11.0667Z" fill="#33312F"/>
<path d="M35.9947 8.8811C35.9855 8.92231 35.9845 8.96494 35.9918 9.00654C35.999 9.04814 36.0145 9.08789 36.0372 9.12352C36.0599 9.15914 36.0893 9.18993 36.124 9.21413C36.1586 9.23833 36.1976 9.25546 36.2389 9.26453L37.1652 9.46634L37.3064 8.83266L36.3801 8.63085C36.2959 8.61346 36.2082 8.62998 36.136 8.67682C36.0639 8.72367 36.0131 8.79706 35.9947 8.8811Z" fill="#FFC990"/>
<path d="M22.8186 33.3122L25.428 33.0014L26.4936 32.8742L26.536 23.252V22.9311C26.5446 22.3826 26.3353 21.8531 25.9539 21.4588C25.5725 21.0646 25.0502 20.8378 24.5017 20.8282H24.4594C23.9114 20.8207 23.3827 21.0304 22.989 21.4117C22.5953 21.7929 22.3686 22.3145 22.3585 22.8625L22.8186 33.3122Z" fill="#0083AF"/>
<path opacity="0.1" d="M34.3197 39.5683C34.9495 39.6463 35.5847 39.672 36.2187 39.645C36.3903 39.645 36.5558 39.6349 36.7273 39.6228C36.7152 39.5118 36.7111 39.4068 36.7051 39.3019C36.7947 39.2481 36.887 39.199 36.9816 39.1546H37.8594L37.5547 30.8804L37.4457 27.9259L38.1743 17.2179L43.0177 20.0674L43.1408 20.134C43.3074 20.2211 43.4854 20.2843 43.6695 20.3217C43.7057 20.3328 43.7429 20.3402 43.7805 20.3439H43.8532L43.9965 20.3661H44.0126L46.6523 20.7697C46.1054 20.582 45.5423 20.4226 45.0075 20.2127C44.9899 20.2074 44.9729 20.2 44.9571 20.1905C44.2238 19.8684 43.5149 19.4934 42.8361 19.0685C42.5818 18.9151 42.3235 18.7597 42.0692 18.6104C40.7938 17.8435 39.5156 17.0793 38.2348 16.3178L37.7 15.9989L37.6818 16.9253C37.6556 18.788 37.6213 20.6547 37.5951 22.5154C37.5608 24.3216 37.5285 26.1661 36.9251 27.8714C36.4407 29.2679 35.5891 30.5111 34.7556 31.7381C35.7647 31.4555 36.4226 30.501 36.9876 29.611C36.6904 31.1344 36.1377 32.5966 35.353 33.9358C35.0422 34.4605 34.689 34.9852 34.5679 35.5745C34.5503 35.6496 34.5374 35.7258 34.5296 35.8025C34.6184 35.7238 34.7052 35.6471 34.7879 35.5644C35.6416 34.7731 36.3752 33.8614 36.9654 32.8581C36.9597 35.0391 36.2332 37.157 34.8989 38.8821C34.8283 38.977 34.7556 39.0718 34.6789 39.1586C34.5619 39.3039 34.4448 39.4412 34.3197 39.5683Z" fill="#1D1D1B"/>
</g>
<defs>
<clipPath id="clip0_76_6789">
<rect width="91" height="67.695" fill="white" transform="translate(0 0.439392)"/>
</clipPath>
</defs>
</svg>
