<svg width="79" height="68" viewBox="0 0 79 68" fill="none" xmlns="http://www.w3.org/2000/svg">
<g clip-path="url(#clip0_76_6861)">
<path d="M0.00219727 0.4394L25.0502 20.7443C24.7874 20.8796 24.5558 21.0683 24.3701 21.2983C24.3326 21.3436 24.3011 21.389 24.2696 21.4343L1.1377 2.15251C0.869783 1.51542 0.484607 0.934312 0.00219727 0.4394Z" fill="#929799"/>
<path d="M1.13745 2.1525L24.2693 21.4245C24.127 21.6274 24.0228 21.8545 23.9618 22.0947L1.6638 4.02923C1.5798 3.38154 1.40251 2.74941 1.13745 2.1525Z" fill="#B7BFC4"/>
<path d="M27.4018 20.973L29.1386 22.3805L26.424 25.7318L25.6355 25.0951C26.0081 25.2725 27.4748 24.2514 27.5339 22.7512C27.5931 21.251 26.2525 20.5038 26.2525 20.5038C26.6732 20.5449 27.0726 20.7079 27.4018 20.973Z" fill="#093759"/>
<path d="M24.2693 21.4264L24.4053 21.5408L23.9618 22.0967C24.0228 21.8565 24.127 21.6294 24.2693 21.4264Z" fill="#0B5191"/>
<path d="M25.0499 20.7364L24.4053 21.5407L24.2693 21.4264C24.3008 21.3811 24.3324 21.3357 24.3698 21.2904C24.5555 21.0604 24.7871 20.8717 25.0499 20.7364Z" fill="#0B5191"/>
<path d="M26.2525 20.5038C26.2525 20.5038 27.5871 21.2529 27.526 22.7492C27.4648 24.2454 26.0001 25.2706 25.6275 25.0931L24.6793 24.3243C24.3564 24.0625 24.1161 23.713 23.9874 23.3177C23.8587 22.9224 23.847 22.4984 23.9539 22.0967L24.3974 21.5408L25.042 20.7364C25.4143 20.5427 25.8349 20.4618 26.2525 20.5038Z" fill="#0B5191"/>
<path d="M29.2924 22.1893C29.3287 22.1412 29.3744 22.1008 29.4267 22.0707C29.4789 22.0405 29.5367 22.0212 29.5966 22.0139C29.6565 22.0066 29.7173 22.0114 29.7753 22.0281C29.8333 22.0448 29.8873 22.0729 29.9342 22.1109C29.9811 22.1489 30.0198 22.196 30.0481 22.2493C30.0764 22.3026 30.0937 22.361 30.0989 22.4211C30.1041 22.4812 30.0972 22.5418 30.0785 22.5992C30.0599 22.6565 30.0298 22.7096 29.9902 22.7551L29.7931 22.9917L27.1416 26.2661L26.9445 26.5026C26.909 26.5527 26.8636 26.595 26.8111 26.6269C26.7586 26.6588 26.7001 26.6796 26.6393 26.688C26.5785 26.6964 26.5166 26.6922 26.4574 26.6758C26.3982 26.6594 26.3431 26.631 26.2953 26.5924C26.2475 26.5538 26.2082 26.5058 26.1797 26.4514C26.1512 26.397 26.1341 26.3374 26.1295 26.2761C26.125 26.2149 26.133 26.1534 26.1531 26.0954C26.1733 26.0374 26.2051 25.9841 26.2466 25.9388L26.4162 25.7299L29.1307 22.3786L29.2924 22.1893Z" fill="#0B5191"/>
<path d="M57.1159 40.5326L55.1165 43L55.7827 43.5399L57.7822 41.0725L57.1159 40.5326Z" fill="#4B4B4B"/>
<path d="M55.1134 42.9911L54.4247 43.8413L55.091 44.3811L55.7797 43.5309L55.1134 42.9911Z" fill="#4B4B4B"/>
<path d="M55.3796 39.1254L53.3801 41.5928L54.0464 42.1327L56.0459 39.6653L55.3796 39.1254Z" fill="#4B4B4B"/>
<path d="M53.3769 41.5833L51.4486 43.9637L52.1149 44.5035L54.0433 42.123L53.3769 41.5833Z" fill="#4B4B4B"/>
<path d="M50.2274 45.4745L50.0004 45.7548L50.6667 46.2946L50.8938 46.0143L50.2274 45.4745Z" fill="#4B4B4B"/>
<path d="M50.6939 44.9075L50.2285 45.4818L50.8948 46.0217L51.3602 45.4474L50.6939 44.9075Z" fill="#4B4B4B"/>
<path d="M53.6899 37.7613L51.6904 40.2287L52.3567 40.7686L54.3562 38.3012L53.6899 37.7613Z" fill="#4B4B4B"/>
<path d="M51.6882 40.2227L50.9994 41.0727L51.6656 41.6126L52.3545 40.7626L51.6882 40.2227Z" fill="#4B4B4B"/>
<path d="M51.9509 36.3465L49.9514 38.8139L50.6192 39.355L52.6187 36.8876L51.9509 36.3465Z" fill="#4B4B4B"/>
<path d="M49.9505 38.8141L48.0217 41.1942L48.6895 41.7353L50.6182 39.3552L49.9505 38.8141Z" fill="#4B4B4B"/>
<path d="M47.455 41.981L46.9893 42.5576L47.6597 43.0991L48.1254 42.5225L47.455 41.981Z" fill="#4B4B4B"/>
<path d="M46.7985 42.7041L46.5714 42.9844L47.2392 43.5255L47.4663 43.2452L46.7985 42.7041Z" fill="#4B4B4B"/>
<path d="M49.8604 34.6521L47.861 37.1195L48.5272 37.6594L50.5267 35.192L49.8604 34.6521Z" fill="#4B4B4B"/>
<path d="M47.8597 37.1134L47.171 37.9636L47.8374 38.5034L48.526 37.6532L47.8597 37.1134Z" fill="#4B4B4B"/>
<path d="M48.583 33.6212L46.5835 36.0886L46.7887 36.2549L48.7882 33.7875L48.583 33.6212Z" fill="#4B4B4B"/>
<path d="M43.4327 39.9751L43.2057 40.2555L43.411 40.4217L43.638 40.1413L43.4327 39.9751Z" fill="#4B4B4B"/>
<path d="M46.4312 31.8759L43.7429 35.1933L44.4092 35.7332L47.0975 32.4158L46.4312 31.8759Z" fill="#4B4B4B"/>
<path d="M44.6943 30.4678L39.3164 37.1042L39.9826 37.6441L45.3605 31.0077L44.6943 30.4678Z" fill="#4B4B4B"/>
<path d="M42.9741 29.0752L40.2858 32.3926L40.952 32.9325L43.6403 29.6151L42.9741 29.0752Z" fill="#4B4B4B"/>
<path d="M41.2338 27.6578L35.8571 34.2951L36.5234 34.8349L41.9001 28.1975L41.2338 27.6578Z" fill="#4B4B4B"/>
<path d="M39.5455 26.289L36.8578 29.6069L37.5241 30.1467L40.2119 26.8288L39.5455 26.289Z" fill="#4B4B4B"/>
<path d="M37.8086 24.891L32.4307 31.5274L33.0969 32.0673L38.4748 25.4309L37.8086 24.891Z" fill="#4B4B4B"/>
<path d="M42.601 41L51.8505 48.4911C52.0058 48.6153 52.1054 48.7961 52.1274 48.9937C52.1494 49.1913 52.092 49.3895 51.9678 49.5448C51.8437 49.7001 51.6629 49.7997 51.4653 49.8217C51.2677 49.8437 51.0694 49.7863 50.9142 49.6621L41.6626 42.171L42.601 41Z" fill="#F4F4F4"/>
<path d="M31.4036 31.9199L41.3393 39.9709L40.4029 41.1281L30.4672 33.0771C30.3147 32.9522 30.2178 32.7721 30.1975 32.5761C30.1772 32.38 30.2351 32.1838 30.3588 32.0303C30.4834 31.8781 30.6629 31.7811 30.8585 31.7605C31.0542 31.7398 31.25 31.7971 31.4036 31.9199Z" fill="#EFE47B"/>
<path d="M38.4926 24.2908L47.8861 31.9002L41.3393 39.9828L31.4036 31.9199C31.25 31.7971 31.0541 31.7398 30.8585 31.7605C30.6629 31.7811 30.4834 31.8781 30.3588 32.0303C30.2351 32.1838 30.1771 32.38 30.1975 32.576C30.2178 32.7721 30.3147 32.9522 30.4672 33.0771L40.4029 41.1281L39.6143 42.1138L30.2208 34.5024C29.733 34.1073 29.3325 33.6153 29.0448 33.0574C28.757 32.4995 28.5882 31.888 28.5491 31.2615L28.2849 27.1887L27.1455 26.2641L29.8009 22.9917L30.9423 23.9162L34.9797 23.3248C35.6002 23.2347 36.2326 23.2741 36.8372 23.4403C37.4418 23.6066 38.0054 23.8961 38.4926 24.2908ZM47.0976 32.4147L46.4313 31.8746L43.7423 35.1924L44.4086 35.7306L47.0976 32.4147ZM45.3608 31.0072L44.6945 30.467L39.3186 37.1046L39.983 37.6428L45.3608 31.0072ZM43.6398 29.6134L42.9755 29.0733L40.2865 32.3911L40.9529 32.9312L43.6398 29.6134ZM41.9031 28.2059L41.2348 27.6657L35.8569 34.3013L36.5232 34.8415L41.9031 28.2059ZM40.2136 26.8378L39.5473 26.2976L36.8603 29.6134L37.5267 30.1536L40.2136 26.8378ZM38.4749 25.4283L37.8086 24.8881L32.4327 31.5257L33.099 32.0638L38.4749 25.4283Z" fill="#D3CA53"/>
<path d="M49.1458 32.9214L59.9567 41.6821L57.394 44.8441L55.7814 43.5391L57.7804 41.0709L57.114 40.5308L55.1151 42.9989L54.0446 42.1315L56.0436 39.6654L55.3792 39.1252L53.3803 41.5914L52.3552 40.7614L54.3541 38.2953L53.6878 37.7551L51.6889 40.2213L50.6184 39.3539L52.6174 36.8877L51.9491 36.3476L49.9501 38.8137L48.5268 37.6585L50.5258 35.1924L49.8595 34.6522L47.8605 37.1184L46.7881 36.251L48.787 33.7848L48.582 33.6173L49.1458 32.9214Z" fill="#E3E3E3"/>
<path d="M50.8944 46.021L54.2457 48.7336L51.683 51.8878L40.8701 43.1369L41.6587 42.1513L50.9102 49.6424C51.0646 49.7554 51.2567 49.8047 51.4464 49.78C51.6362 49.7554 51.8092 49.6586 51.9296 49.5098C52.05 49.3611 52.1085 49.1717 52.0931 48.9809C52.0776 48.7902 51.9894 48.6127 51.8466 48.4852L42.597 40.9941L43.2003 40.2469L43.4072 40.4145L43.634 40.1346L46.7881 42.6973L46.5614 42.9773L47.2297 43.5174L47.4564 43.2375L50.2163 45.475L49.9896 45.7549L50.6559 46.295L50.8944 46.021Z" fill="#E3E3E3"/>
<path d="M51.3589 45.4476L50.8934 46.022L54.2415 48.7351L54.7069 48.1608L51.3589 45.4476Z" fill="#58606B"/>
<path d="M47.9331 42.6725L47.4677 43.2469L50.2276 45.4834L50.693 44.9091L47.9331 42.6725Z" fill="#58606B"/>
<path d="M43.8972 39.4053L43.4318 39.9796L43.637 40.1459L44.1024 39.5716L43.8972 39.4053Z" fill="#4B4B4B"/>
<path d="M44.1026 39.5686L43.6372 40.143L46.8 42.7059L47.2654 42.1316L44.1026 39.5686Z" fill="#58606B"/>
<path d="M46.5807 36.0806L44.6523 38.461L44.8576 38.6273L46.7859 36.2469L46.5807 36.0806Z" fill="#4B4B4B"/>
<path d="M60.5876 40.9684C60.7375 40.7856 60.9535 40.6694 61.1887 40.6451C61.4239 40.6207 61.6591 40.6901 61.8433 40.8383C62.0251 40.9885 62.1406 41.2041 62.165 41.4386C62.1893 41.6731 62.1205 41.9078 61.9734 42.0921L58.8193 45.9934L57.4393 44.8698L60.5876 40.9684Z" fill="#CFD7E5"/>
<path d="M77.415 54.6062C77.5647 54.4231 77.7806 54.3066 78.0157 54.2818C78.2509 54.2571 78.4863 54.3262 78.6708 54.4742C78.8531 54.6206 78.97 54.8332 78.996 55.0656C79.0189 55.3012 78.948 55.5363 78.7989 55.7201L69.3246 67.4102C69.1753 67.5932 68.9598 67.7097 68.7249 67.7344C68.4901 67.7592 68.2549 67.6901 68.0708 67.5423C67.8873 67.3929 67.7703 67.177 67.7456 66.9417C67.7208 66.7063 67.7903 66.4708 67.9387 66.2865L71.0929 62.3852L71.5581 61.8115L72.3151 60.8771L74.2451 58.4957L77.415 54.6062Z" fill="#CFD7E5"/>
<path d="M47.8861 31.9002L49.1458 32.9214L48.582 33.6173L48.1207 33.2447L42.7428 39.8802L43.2041 40.2528L42.5989 41L41.3392 39.9788L47.8861 31.9002Z" fill="#B1B8C4"/>
<path d="M48.1208 33.2447L48.5821 33.6173L46.5831 36.0834L44.6532 38.4648L43.8962 39.3992L43.4309 39.9729L43.2042 40.2528L42.7429 39.8802L48.1208 33.2447Z" fill="#4B4B4B"/>
<path d="M58.8123 45.9967L56.8835 48.3768L72.3266 60.8913L74.2554 58.5112L58.8123 45.9967Z" fill="#9098A5"/>
<path d="M57.4264 44.8725L55.4977 47.2526L56.8822 48.3746L58.811 45.9945L57.4264 44.8725Z" fill="#CFD7E5"/>
<path d="M55.7814 43.5391L57.394 44.8441L55.8169 46.7898L55.466 47.2255L52.1167 44.511L54.0447 42.1315L55.1151 42.9989L54.4271 43.8486L55.0934 44.3887L55.7814 43.5391Z" fill="#58606B"/>
<path d="M52.3552 40.7614L53.3803 41.5914L51.4503 43.9728L48.6904 41.7353L50.6184 39.3539L51.6889 40.2213L50.9989 41.0729L51.6652 41.6111L52.3552 40.7614Z" fill="#58606B"/>
<path d="M48.5268 37.6585L49.9501 38.8137L48.0222 41.1932L44.8601 38.6324L46.7881 36.251L47.8605 37.1184L47.1705 37.97L47.8369 38.5101L48.5268 37.6585Z" fill="#58606B"/>
<path d="M56.882 48.3782L56.1249 49.3125L71.568 61.827L72.3251 60.8927L56.882 48.3782Z" fill="#B1B8C4"/>
<path d="M55.4959 47.2493L54.7388 48.1836L56.1233 49.3056L56.8804 48.3713L55.4959 47.2493Z" fill="#CFD7E5"/>
<path d="M52.116 44.5166L51.3589 45.4509L54.707 48.1641L55.4641 47.2298L52.116 44.5166Z" fill="#9098A5"/>
<path d="M51.6474 43.8056L50.8898 44.7435L51.5586 45.2838L52.3162 44.3458L51.6474 43.8056Z" fill="#4B4B4B"/>
<path d="M48.6886 41.7383L47.9315 42.6726L50.6915 44.9092L51.4486 43.9749L48.6886 41.7383Z" fill="#9098A5"/>
<path d="M48.0221 41.1976L47.265 42.1319L47.9328 42.673L48.6899 41.7387L48.0221 41.1976Z" fill="#4B4B4B"/>
<path d="M44.8601 38.6344L44.103 39.5687L47.2658 42.1317L48.0229 41.1974L44.8601 38.6344Z" fill="#9098A5"/>
<path d="M44.6542 38.4634L43.8975 39.398L44.1028 39.5642L44.8595 38.6297L44.6542 38.4634Z" fill="#4B4B4B"/>
<path d="M56.1249 49.3092L55.6594 49.8835L71.1025 62.398L71.5679 61.8236L56.1249 49.3092Z" fill="#9098A5"/>
<path d="M54.7402 48.1894L54.2748 48.7638L55.6593 49.8858L56.1248 49.3114L54.7402 48.1894Z" fill="#CFD7E5"/>
<path d="M54.2752 48.7592L55.6552 49.8829L52.501 53.7822C52.3472 53.9482 52.1359 54.0494 51.9102 54.0653C51.6845 54.0812 51.4612 54.0106 51.2856 53.8679C51.11 53.7251 50.9952 53.5209 50.9647 53.2967C50.9342 53.0725 50.9901 52.845 51.1211 52.6605L54.2752 48.7592Z" fill="#CFD7E5"/>
<path d="M41.3388 39.9805L40.4017 41.1368L41.6622 42.1583L42.5993 41.0019L41.3388 39.9805Z" fill="#DAE2EA"/>
<path d="M40.404 41.1349L39.6096 42.1151L40.8701 43.1366L41.6645 42.1563L40.404 41.1349Z" fill="#B1B8C4"/>
<g style="mix-blend-mode:multiply">
<path d="M0 0.441589L25.048 20.7465C24.7858 20.8835 24.5543 21.0727 24.3679 21.3024C24.3324 21.3471 24.2989 21.3925 24.2674 21.4385L1.1355 2.15272C0.867369 1.51634 0.482205 0.935916 0 0.441589Z" fill="url(#paint0_linear_76_6861)"/>
<path d="M1.1355 2.1525L24.2674 21.4245C24.1262 21.6273 24.0221 21.8536 23.9598 22.0927L1.66185 4.02923C1.57788 3.38153 1.40059 2.7494 1.1355 2.1525Z" fill="url(#paint1_linear_76_6861)"/>
<path d="M57.114 40.5307L55.1145 42.9981L55.7807 43.538L57.7802 41.0705L57.114 40.5307Z" fill="url(#paint2_linear_76_6861)"/>
<path d="M55.1145 43.0027L54.4257 43.8527L55.0919 44.3926L55.7807 43.5426L55.1145 43.0027Z" fill="url(#paint3_linear_76_6861)"/>
<path d="M55.3767 39.1178L53.3777 41.5855L54.044 42.1253L56.0431 39.6576L55.3767 39.1178Z" fill="url(#paint4_linear_76_6861)"/>
<path d="M53.3781 41.5946L51.4493 43.9747L52.1156 44.5146L54.0443 42.1345L53.3781 41.5946Z" fill="url(#paint5_linear_76_6861)"/>
<path d="M50.2274 45.483L50.0002 45.7633L50.6665 46.3032L50.8936 46.0229L50.2274 45.483Z" fill="url(#paint6_linear_76_6861)"/>
<path d="M50.6921 44.9017L50.2268 45.4762L50.8931 46.0159L51.3585 45.4415L50.6921 44.9017Z" fill="url(#paint7_linear_76_6861)"/>
<path d="M53.6863 37.7582L51.6868 40.2256L52.353 40.7655L54.3525 38.2981L53.6863 37.7582Z" fill="url(#paint8_linear_76_6861)"/>
<path d="M51.6858 40.2174L50.9971 41.0676L51.6634 41.6073L52.3521 40.7572L51.6858 40.2174Z" fill="url(#paint9_linear_76_6861)"/>
<path d="M51.9492 36.3493L49.9497 38.8167L50.6175 39.3578L52.617 36.8904L51.9492 36.3493Z" fill="url(#paint10_linear_76_6861)"/>
<path d="M49.9507 38.8169L48.022 41.197L48.6898 41.7381L50.6185 39.358L49.9507 38.8169Z" fill="url(#paint11_linear_76_6861)"/>
<path d="M47.2634 42.1314L46.798 42.7057L47.4657 43.2468L47.9312 42.6725L47.2634 42.1314Z" fill="url(#paint12_linear_76_6861)"/>
<path d="M46.7984 42.6976L46.5713 42.9779L47.2392 43.5189L47.4662 43.2386L46.7984 42.6976Z" fill="url(#paint13_linear_76_6861)"/>
<path d="M49.8587 34.6529L47.8593 37.1203L48.5255 37.6602L50.525 35.1928L49.8587 34.6529Z" fill="url(#paint14_linear_76_6861)"/>
<path d="M47.859 37.1222L47.1702 37.9722L47.8364 38.5121L48.5253 37.6621L47.859 37.1222Z" fill="url(#paint15_linear_76_6861)"/>
<path d="M48.5822 33.6211L46.5823 36.0881L46.7875 36.2545L48.7874 33.7874L48.5822 33.6211Z" fill="url(#paint16_linear_76_6861)"/>
<path d="M43.4303 39.976L43.2031 40.2562L43.4083 40.4226L43.6355 40.1423L43.4303 39.976Z" fill="url(#paint17_linear_76_6861)"/>
<path d="M46.4272 31.8689L43.7395 35.1868L44.4058 35.7266L47.0936 32.4087L46.4272 31.8689Z" fill="url(#paint18_linear_76_6861)"/>
<path d="M44.6945 30.4706L39.3167 37.107L39.9829 37.6469L45.3608 31.0105L44.6945 30.4706Z" fill="url(#paint19_linear_76_6861)"/>
<path d="M42.9724 29.076L40.2841 32.3934L40.9503 32.9333L43.6386 29.6159L42.9724 29.076Z" fill="url(#paint20_linear_76_6861)"/>
<path d="M41.2346 27.6682L35.8567 34.3046L36.5229 34.8445L41.9008 28.2081L41.2346 27.6682Z" fill="url(#paint21_linear_76_6861)"/>
<path d="M39.5464 26.2988L36.858 29.6162L37.5243 30.1561L40.2126 26.8387L39.5464 26.2988Z" fill="url(#paint22_linear_76_6861)"/>
<path d="M37.8078 24.8833L32.431 31.5207L33.0974 32.0605L38.4741 25.4231L37.8078 24.8833Z" fill="url(#paint23_linear_76_6861)"/>
<path d="M38.4907 24.2908L47.8842 31.9022L41.3393 39.9847L31.4036 31.9337C31.3277 31.8723 31.2404 31.8265 31.1466 31.7991C31.0529 31.7717 30.9546 31.7632 30.8576 31.774C30.7603 31.7832 30.6658 31.8118 30.5798 31.8582C30.4938 31.9046 30.418 31.9678 30.3569 32.0441C30.233 32.1973 30.1751 32.3935 30.1958 32.5894C30.2165 32.7853 30.3141 32.965 30.4673 33.0889L40.4029 41.1399L39.6143 42.1256L30.2149 34.5044C29.7273 34.1095 29.327 33.6178 29.0393 33.0603C28.7515 32.5028 28.5826 31.8916 28.5432 31.2654L28.283 27.1887L27.1436 26.2641L29.8009 22.9936L30.9404 23.9182L34.9797 23.3268C35.5998 23.2361 36.2319 23.275 36.8362 23.4409C37.4405 23.6068 38.0038 23.8962 38.4907 24.2908ZM47.0956 32.4147L46.4293 31.8765L43.7423 35.1924L44.4087 35.7325L47.0956 32.4147ZM45.3589 31.0092L44.6945 30.469L39.3167 37.1046L39.983 37.6447L45.3589 31.0092ZM43.6398 29.6154L42.9735 29.0753L40.2846 32.393L40.9509 32.9312L43.6398 29.6154ZM41.9011 28.2059L41.2348 27.6677L35.8589 34.3033L36.5233 34.8434L41.9011 28.2059ZM40.2117 26.8378L39.5473 26.2976L36.8584 29.6154L37.5247 30.1556L40.2117 26.8378ZM38.4749 25.4302L37.8086 24.8901L32.4307 31.5256L33.097 32.0658L38.4749 25.4302Z" fill="url(#paint24_linear_76_6861)"/>
<path d="M49.1439 32.9234L59.9548 41.684L57.392 44.8461L55.7794 43.5391L57.7784 41.0729L57.1121 40.5328L55.1131 42.9989L54.0447 42.1335L56.0436 39.6654L55.3773 39.1272L53.3783 41.5934L52.3532 40.7634L54.3522 38.2953L53.6859 37.7551L51.6869 40.2233L50.6165 39.3559L52.6154 36.8897L51.9471 36.3476L49.9502 38.8138L48.5249 37.6605L50.5238 35.1944L49.8575 34.6542L47.8585 37.1204L46.7861 36.253L48.7851 33.7848L48.5801 33.6192L49.1439 32.9234Z" fill="url(#paint25_linear_76_6861)"/>
<path d="M50.8945 46.023L54.2458 48.7356L51.683 51.8897L40.8682 43.1369L41.6567 42.1513L50.9063 49.6424C51.0595 49.7666 51.2557 49.8248 51.4519 49.8043C51.648 49.7838 51.8279 49.6862 51.9521 49.533C52.0763 49.3798 52.1345 49.1835 52.114 48.9874C52.0935 48.7913 51.9959 48.6114 51.8427 48.4872L42.5931 40.996L43.1983 40.2489L43.3954 40.4165L43.6221 40.1365L46.7763 42.6993L46.5496 42.9812L47.2179 43.5213L47.4446 43.2414L50.2045 45.4789L49.9758 45.7588L50.6421 46.299L50.8945 46.023Z" fill="url(#paint26_linear_76_6861)"/>
<path d="M51.3572 45.4504L50.8917 46.0247L54.2398 48.7379L54.7052 48.1635L51.3572 45.4504Z" fill="url(#paint27_linear_76_6861)"/>
<path d="M47.9314 42.6733L47.4659 43.2477L50.2259 45.4842L50.6913 44.9099L47.9314 42.6733Z" fill="url(#paint28_linear_76_6861)"/>
<path d="M43.8966 39.4017L43.431 39.976L43.6362 40.1423L44.1018 39.5681L43.8966 39.4017Z" fill="url(#paint29_linear_76_6861)"/>
<path d="M44.103 39.5694L43.6376 40.1438L46.8003 42.7067L47.2657 42.1324L44.103 39.5694Z" fill="url(#paint30_linear_76_6861)"/>
<path d="M46.5813 36.0924L44.6526 38.4725L44.8578 38.6388L46.7866 36.2587L46.5813 36.0924Z" fill="url(#paint31_linear_76_6861)"/>
<path d="M60.5856 40.9704C60.6966 40.834 60.8455 40.7335 61.0135 40.6815C61.1815 40.6296 61.3612 40.6285 61.5298 40.6785C61.6984 40.7284 61.8485 40.8272 61.9611 40.9623C62.0737 41.0973 62.1439 41.2627 62.1626 41.4376C62.1853 41.6738 62.1146 41.9095 61.9655 42.0941L58.8113 45.9934L57.4314 44.8717L60.5856 40.9704Z" fill="url(#paint32_linear_76_6861)"/>
<path d="M77.4151 54.6062C77.5705 54.4454 77.7807 54.3488 78.004 54.3355C78.2273 54.3222 78.4475 54.3932 78.621 54.5345C78.7944 54.6757 78.9086 54.8769 78.9408 55.0983C78.973 55.3197 78.921 55.5451 78.795 55.7299L69.3227 67.422C69.173 67.6051 68.9571 67.7217 68.722 67.7465C68.4868 67.7712 68.2514 67.7021 68.0669 67.5541C67.8834 67.4048 67.7664 67.1888 67.7417 66.9535C67.7169 66.7182 67.7864 66.4826 67.9348 66.2984L71.089 62.397L71.5542 61.8234L72.3112 60.889L74.2392 58.5076L77.4151 54.6062Z" fill="url(#paint33_linear_76_6861)"/>
<path d="M47.8841 31.9022L49.1438 32.9234L48.58 33.6192L48.1187 33.2447L42.7429 39.8822L43.2022 40.2548L42.597 41.002L41.3373 39.9808L47.8841 31.9022Z" fill="url(#paint34_linear_76_6861)"/>
<path d="M48.1188 33.2447L48.5801 33.6192L46.5811 36.0854L44.6532 38.4668L43.8942 39.4012L43.4289 39.9749L43.2022 40.2548L42.7429 39.8822L48.1188 33.2447Z" fill="url(#paint35_linear_76_6861)"/>
<path d="M58.8106 45.9975L56.8818 48.3776L72.3249 60.8921L74.2537 58.512L58.8106 45.9975Z" fill="url(#paint36_linear_76_6861)"/>
<path d="M57.4243 44.8725L55.4956 47.2526L56.8802 48.3746L58.8089 45.9945L57.4243 44.8725Z" fill="url(#paint37_linear_76_6861)"/>
<path d="M55.7794 43.5391L57.3919 44.8461L55.8168 46.7918L55.464 47.2275L52.1146 44.5129L54.0446 42.1335L55.1131 42.9989L54.4251 43.8505L55.0914 44.3887L55.7794 43.5391Z" fill="url(#paint38_linear_76_6861)"/>
<path d="M52.3532 40.7634L53.3783 41.5934L51.4484 43.9728L48.6885 41.7373L50.6165 39.3559L51.6869 40.2233L50.9989 41.0729L51.6633 41.6131L52.3532 40.7634Z" fill="url(#paint39_linear_76_6861)"/>
<path d="M48.5249 37.6605L49.9502 38.8137L48.0202 41.1951L44.8582 38.6324L46.7861 36.253L47.8586 37.1204L47.1706 37.97L47.8369 38.5102L48.5249 37.6605Z" fill="url(#paint40_linear_76_6861)"/>
<path d="M56.88 48.3762L56.1229 49.3105L71.566 61.825L72.3231 60.8907L56.88 48.3762Z" fill="url(#paint41_linear_76_6861)"/>
<path d="M55.4942 47.254L54.7371 48.1883L56.1216 49.3103L56.8787 48.376L55.4942 47.254Z" fill="url(#paint42_linear_76_6861)"/>
<path d="M52.116 44.5146L51.3589 45.4489L54.707 48.1621L55.4641 47.2278L52.116 44.5146Z" fill="url(#paint43_linear_76_6861)"/>
<path d="M51.4488 43.966L50.6919 44.9004L51.3582 45.4402L52.1152 44.5058L51.4488 43.966Z" fill="url(#paint44_linear_76_6861)"/>
<path d="M48.6889 41.7411L47.9318 42.6754L50.6917 44.9119L51.4488 43.9776L48.6889 41.7411Z" fill="url(#paint45_linear_76_6861)"/>
<path d="M48.0202 41.1956L47.2631 42.1299L47.9308 42.671L48.6879 41.7368L48.0202 41.1956Z" fill="url(#paint46_linear_76_6861)"/>
<path d="M44.8585 38.6372L44.1014 39.5715L47.2642 42.1344L48.0213 41.2002L44.8585 38.6372Z" fill="url(#paint47_linear_76_6861)"/>
<path d="M44.6523 38.4695L43.895 39.4036L44.1002 39.57L44.8575 38.6358L44.6523 38.4695Z" fill="url(#paint48_linear_76_6861)"/>
<path d="M56.1233 49.3119L55.6578 49.8863L71.1009 62.4008L71.5664 61.8264L56.1233 49.3119Z" fill="url(#paint49_linear_76_6861)"/>
<path d="M54.7385 48.1922L54.2731 48.7665L55.6576 49.8885L56.1231 49.3142L54.7385 48.1922Z" fill="url(#paint50_linear_76_6861)"/>
<path d="M54.2733 48.7612L55.6532 49.8829L52.4991 53.7842C52.3452 53.9502 52.134 54.0514 51.9083 54.0673C51.6825 54.0832 51.4592 54.0126 51.2836 53.8698C51.108 53.7271 50.9933 53.5229 50.9627 53.2987C50.9322 53.0745 50.9881 52.847 51.1191 52.6625L54.2733 48.7612Z" fill="url(#paint51_linear_76_6861)"/>
<path d="M40.4024 41.1416L39.608 42.1218L40.8685 43.1433L41.6629 42.1631L40.4024 41.1416Z" fill="url(#paint52_linear_76_6861)"/>
</g>
<path d="M11.8439 40.5742C11.7151 40.679 11.5779 40.7733 11.4339 40.8561C10.742 41.2507 10.1488 41.7974 9.6991 42.4548V41.8634C9.69901 41.6115 9.76409 41.3637 9.88804 41.1444C10.012 40.925 10.1906 40.7414 10.4064 40.6114C10.6223 40.4815 10.8681 40.4095 11.12 40.4027C11.3719 40.3958 11.6213 40.4542 11.8439 40.5722V40.5742Z" fill="#EBFFFB"/>
<path d="M26.7295 43.748V65.1845C26.7295 65.8642 26.4595 66.5161 25.9789 66.9967C25.4983 67.4773 24.8465 67.7473 24.1668 67.7473H23.3329V66.3141C23.9134 66.2977 24.4647 66.0556 24.8696 65.6393C25.2745 65.223 25.5011 64.6653 25.5014 64.0845V45.4158C25.5019 44.4897 25.2572 43.58 24.7921 42.7791C24.3271 41.9783 23.6584 41.3148 22.8539 40.8561C22.389 40.5928 22.0024 40.2107 21.7336 39.749C21.4648 39.2873 21.3235 38.7625 21.3241 38.2282V37.5067H18.5386V34.668H21.9352V35.496C21.9353 36.1086 22.0978 36.7102 22.4059 37.2397C22.7141 37.7691 23.1571 38.2075 23.6897 38.5101C24.6139 39.037 25.382 39.7992 25.9159 40.7192C26.4498 41.6392 26.7306 42.6843 26.7295 43.748Z" fill="#A3C9C2"/>
<path d="M17.1153 34.668H18.5386V37.5107H12.9597V38.2282C12.9608 38.6772 12.8611 39.1207 12.668 39.5261C12.4749 39.9314 12.1933 40.2882 11.8439 40.5702C11.6208 40.4506 11.3704 40.3911 11.1173 40.3974C10.8643 40.4038 10.6172 40.4758 10.4003 40.6064C10.1835 40.737 10.0043 40.9217 9.88028 41.1424C9.75631 41.3631 9.69182 41.6123 9.69315 41.8654V42.4568C9.09788 43.3281 8.7791 44.3586 8.77844 45.4138V64.0825C8.77844 64.3758 8.83623 64.6661 8.9485 64.937C9.06077 65.2079 9.22532 65.454 9.43275 65.6612C9.64018 65.8684 9.88642 66.0328 10.1574 66.1448C10.4284 66.2568 10.7188 66.3144 11.012 66.3141H23.327V67.7473H10.0874C9.40773 67.7473 8.75588 67.4773 8.27527 66.9967C7.79466 66.5161 7.52466 65.8642 7.52466 65.1845V43.748C7.52452 42.6848 7.80588 41.6404 8.34015 40.7211C8.87441 39.8018 9.64254 39.0403 10.5665 38.5141C11.0989 38.2116 11.5415 37.7731 11.8491 37.2436C12.1566 36.714 12.3181 36.1123 12.317 35.4999V34.6719L17.1153 34.668Z" fill="#C8E8E3"/>
<path d="M12.6206 51.8582V60.7884C12.6206 61.1758 12.4667 61.5474 12.1928 61.8213C11.9188 62.0953 11.5473 62.2492 11.1599 62.2492C10.7724 62.2492 10.4009 62.0953 10.1269 61.8213C9.853 61.5474 9.6991 61.1758 9.6991 60.7884V51.8582H12.6206Z" fill="#FCEA6D"/>
<path d="M12.6206 41.8654V51.8582H9.69312V42.4548C10.1428 41.7974 10.736 41.2507 11.4279 40.8561C11.572 40.7733 11.7091 40.679 11.8379 40.5742C11.9662 40.6428 12.0837 40.7298 12.1869 40.8324C12.3237 40.9675 12.4324 41.1283 12.5068 41.3056C12.5813 41.4829 12.6199 41.6731 12.6206 41.8654Z" fill="#F9F9F9"/>
<path d="M18.2015 29.574C18.4106 29.574 18.6112 29.6571 18.7591 29.805C18.9069 29.9529 18.99 30.1534 18.99 30.3626C18.99 30.5717 18.9069 30.7723 18.7591 30.9201C18.6112 31.068 18.4106 31.1511 18.2015 31.1511H11.01C10.8008 31.1511 10.6003 31.068 10.4524 30.9201C10.3045 30.7723 10.2214 30.5717 10.2214 30.3626C10.2214 30.1534 10.3045 29.9529 10.4524 29.805C10.6003 29.6571 10.8008 29.574 11.01 29.574H18.2015Z" fill="#D1CDC7"/>
<path d="M24.9119 31.5257V33.497C24.9119 33.8107 24.7873 34.1116 24.5655 34.3334C24.3437 34.5552 24.0428 34.6798 23.7291 34.6798H10.5211C10.2074 34.6798 9.90652 34.5552 9.6847 34.3334C9.46287 34.1116 9.33826 33.8107 9.33826 33.497V32.3536C9.33826 32.3536 9.5827 34.0017 12.6896 33.8519C15.7964 33.702 24.6182 34.2185 24.9119 31.5257Z" fill="#87827A"/>
<path d="M24.9119 30.0117V31.5257C24.6182 34.2225 15.8043 33.6942 12.6896 33.8479C9.57482 34.0017 9.33826 32.3497 9.33826 32.3497V30.0117C9.33826 29.698 9.46287 29.3971 9.6847 29.1753C9.90652 28.9535 10.2074 28.8289 10.5211 28.8289H23.7291C24.0428 28.8289 24.3437 28.9535 24.5655 29.1753C24.7873 29.3971 24.9119 29.698 24.9119 30.0117ZM18.9979 30.3606C18.9979 30.1515 18.9148 29.9509 18.7669 29.803C18.619 29.6551 18.4185 29.5721 18.2093 29.5721H11.01C10.8008 29.5721 10.6003 29.6551 10.4524 29.803C10.3045 29.9509 10.2214 30.1515 10.2214 30.3606C10.2214 30.5697 10.3045 30.7703 10.4524 30.9182C10.6003 31.0661 10.8008 31.1491 11.01 31.1491H18.2015C18.4106 31.1491 18.6112 31.0661 18.759 30.9182C18.9069 30.7703 18.99 30.5697 18.99 30.3606H18.9979Z" fill="#AFABA4"/>
<path d="M25.5054 45.4158V51.8582H23.3369V46.2931C23.3352 45.4581 23.1114 44.6386 22.6884 43.9187C22.2654 43.1988 21.6585 42.6045 20.9299 42.1966C20.2027 41.787 19.5975 41.1914 19.1763 40.4709C18.755 39.7503 18.5329 38.9308 18.5327 38.0962V37.5048H21.3242V38.2283C21.3241 38.7616 21.4654 39.2855 21.7338 39.7465C22.0022 40.2074 22.388 40.5889 22.852 40.8521C23.6565 41.3108 24.3252 41.9743 24.7902 42.7752C25.2552 43.5761 25.4999 44.4858 25.4995 45.4119L25.5054 45.4158Z" fill="#CECDC6"/>
<path d="M9.6931 42.4548V51.8582H8.78431V45.4158C8.78244 44.3599 9.09917 43.3279 9.6931 42.4548Z" fill="#E3E3E3"/>
<path d="M23.3329 46.2931V51.8582H12.6206V41.8654C12.6207 41.6736 12.583 41.4836 12.5096 41.3063C12.4362 41.1291 12.3285 40.968 12.1928 40.8324C12.0897 40.7298 11.9721 40.6428 11.8439 40.5742C12.1938 40.2917 12.4757 39.9343 12.6688 39.5282C12.8619 39.1222 12.9613 38.6779 12.9597 38.2283V37.5068H18.5386V38.0982C18.5386 38.9319 18.7599 39.7506 19.1801 40.4707C19.6002 41.1908 20.204 41.7864 20.9298 42.1966C21.6566 42.6057 22.2615 43.2007 22.6827 43.9205C23.1039 44.6403 23.3263 45.4591 23.327 46.2931H23.3329Z" fill="#E3E3E3"/>
<path d="M25.5054 51.8582V64.0806C25.5051 64.6613 25.2785 65.2191 24.8736 65.6354C24.4687 66.0517 23.9174 66.2938 23.3369 66.3102V51.8582H25.5054Z" fill="#ADA342"/>
<path d="M23.3329 51.8582V66.3141H11.0178C10.7246 66.3144 10.4342 66.2569 10.1633 66.1448C9.89228 66.0328 9.64604 65.8685 9.43861 65.6612C9.23118 65.454 9.06663 65.2079 8.95436 64.937C8.84209 64.6661 8.7843 64.3758 8.7843 64.0826V51.8602H9.6931V60.7904C9.6931 61.1778 9.847 61.5494 10.1209 61.8233C10.3949 62.0973 10.7664 62.2512 11.1539 62.2512C11.5413 62.2512 11.9128 62.0973 12.1868 61.8233C12.4607 61.5494 12.6146 61.1778 12.6146 60.7904V51.8602L23.3329 51.8582Z" fill="#D3CA53"/>
<g style="mix-blend-mode:multiply">
<path d="M11.8498 40.5781C11.7219 40.6843 11.5846 40.7786 11.4397 40.86C10.7478 41.2547 10.1546 41.8013 9.70496 42.4588V41.8674C9.70486 41.6154 9.76995 41.3677 9.8939 41.1483C10.0178 40.9289 10.1964 40.7453 10.4123 40.6154C10.6282 40.4854 10.874 40.4135 11.1259 40.4066C11.3778 40.3998 11.6271 40.4582 11.8498 40.5762V40.5781Z" fill="url(#paint53_linear_76_6861)"/>
<path d="M26.7355 43.748V65.1885C26.7355 65.8682 26.4655 66.52 25.9849 67.0006C25.5043 67.4812 24.8525 67.7512 24.1728 67.7512H23.3389V66.32C23.9197 66.3036 24.4713 66.0613 24.8762 65.6445C25.2812 65.2278 25.5076 64.6695 25.5074 64.0885V45.4198C25.5078 44.4937 25.2631 43.584 24.7981 42.7831C24.3331 41.9822 23.6644 41.3187 22.8598 40.86C22.3955 40.5956 22.0097 40.2127 21.742 39.7502C21.4742 39.2878 21.3341 38.7626 21.336 38.2283V37.5067H18.5446V34.6798H21.9412V35.5058C21.9418 36.1169 22.1038 36.7169 22.4109 37.2452C22.7179 37.7734 23.1591 38.2112 23.6898 38.5141C24.614 39.0403 25.3826 39.8017 25.9175 40.7209C26.4525 41.6401 26.7347 42.6845 26.7355 43.748Z" fill="url(#paint54_linear_76_6861)"/>
<path d="M17.1212 34.6798H18.5446V37.5205H12.9656V38.2283C12.9667 38.6772 12.867 39.1207 12.6739 39.5261C12.4808 39.9314 12.1992 40.2882 11.8498 40.5702C11.6272 40.4522 11.3778 40.3938 11.1259 40.4007C10.8741 40.4076 10.6282 40.4795 10.4124 40.6094C10.1965 40.7394 10.0179 40.923 9.89395 41.1424C9.77 41.3618 9.70491 41.6095 9.705 41.8615V42.4529C9.10973 43.3242 8.79096 44.3547 8.7903 45.4099V64.0786C8.7903 64.6705 9.02541 65.2381 9.44391 65.6566C9.86241 66.0751 10.43 66.3102 11.0219 66.3102H23.3389V67.7414H10.0973C9.41762 67.7414 8.76577 67.4714 8.28516 66.9908C7.80455 66.5102 7.53455 65.8583 7.53455 65.1786V43.748C7.53426 42.6842 7.81575 41.6393 8.35039 40.7197C8.88503 39.8 9.65374 39.0383 10.5783 38.5121C11.1113 38.2102 11.5544 37.7719 11.862 37.2422C12.1696 36.7125 12.3308 36.1105 12.3289 35.4979V34.6798H17.1212Z" fill="url(#paint55_linear_76_6861)"/>
<path d="M12.6265 51.8641V60.7924C12.6265 61.1798 12.4726 61.5513 12.1987 61.8253C11.9247 62.0992 11.5532 62.2531 11.1657 62.2531C10.7783 62.2531 10.4068 62.0992 10.1328 61.8253C9.85886 61.5513 9.70496 61.1798 9.70496 60.7924V51.8641H12.6265Z" fill="url(#paint56_linear_76_6861)"/>
<path d="M12.6265 41.8694V51.8641H9.70496V42.4588C10.1546 41.8014 10.7478 41.2547 11.4397 40.86C11.5846 40.7786 11.7219 40.6843 11.8498 40.5781C11.978 40.6468 12.0956 40.7338 12.1987 40.8364C12.4725 41.1105 12.6263 41.482 12.6265 41.8694Z" fill="url(#paint57_linear_76_6861)"/>
<path d="M18.2075 29.578C18.4166 29.578 18.6172 29.6611 18.765 29.8089C18.9129 29.9568 18.996 30.1574 18.996 30.3665C18.996 30.5757 18.9129 30.7762 18.765 30.9241C18.6172 31.072 18.4166 31.1551 18.2075 31.1551H11.016C10.8068 31.1551 10.6063 31.072 10.4584 30.9241C10.3105 30.7762 10.2274 30.5757 10.2274 30.3665C10.2274 30.1574 10.3105 29.9568 10.4584 29.8089C10.6063 29.6611 10.8068 29.578 11.016 29.578H18.2075Z" fill="url(#paint58_linear_76_6861)"/>
<path d="M24.9179 31.5257V33.497C24.9179 33.8107 24.7933 34.1116 24.5715 34.3334C24.3497 34.5552 24.0488 34.6798 23.7351 34.6798H10.5271C10.2133 34.6798 9.9125 34.5552 9.69067 34.3334C9.46885 34.1116 9.34424 33.8107 9.34424 33.497V32.3517C9.34424 32.3517 9.58671 33.9997 12.6955 33.8499C15.8044 33.7001 24.6242 34.2225 24.9179 31.5257Z" fill="url(#paint59_linear_76_6861)"/>
<path d="M24.9179 30.0156V31.5257C24.6242 34.2225 15.8103 33.6942 12.6955 33.8479C9.5808 34.0017 9.34424 32.3497 9.34424 32.3497V30.0156C9.34424 29.7019 9.46885 29.4011 9.69067 29.1792C9.9125 28.9574 10.2133 28.8328 10.5271 28.8328H23.7351C24.0488 28.8328 24.3497 28.9574 24.5715 29.1792C24.7933 29.4011 24.9179 29.7019 24.9179 30.0156ZM19.0039 30.3645C19.0039 30.1554 18.9208 29.9548 18.7729 29.807C18.625 29.6591 18.4245 29.576 18.2153 29.576H11.0159C10.8068 29.576 10.6062 29.6591 10.4584 29.807C10.3105 29.9548 10.2274 30.1554 10.2274 30.3645C10.2274 30.5737 10.3105 30.7742 10.4584 30.9221C10.6062 31.07 10.8068 31.1531 11.0159 31.1531H18.2074C18.4166 31.1531 18.6171 31.07 18.765 30.9221C18.9129 30.7742 18.996 30.5737 18.996 30.3645H19.0039Z" fill="url(#paint60_linear_76_6861)"/>
<path d="M25.5113 45.4198V51.8641H23.3428V46.297C23.3421 45.463 23.1197 44.6442 22.6985 43.9244C22.2773 43.2046 21.6724 42.6097 20.9456 42.2005C20.2184 41.7909 19.6132 41.1953 19.192 40.4748C18.7708 39.7543 18.5487 38.9348 18.5485 38.1001V37.5087H21.3399V38.2283C21.3398 38.7617 21.4812 39.2855 21.7496 39.7465C22.018 40.2074 22.4038 40.5889 22.8677 40.8521C23.6722 41.3108 24.341 41.9743 24.806 42.7752C25.271 43.5761 25.5157 44.4858 25.5152 45.4119L25.5113 45.4198Z" fill="url(#paint61_linear_76_6861)"/>
<path d="M9.70499 42.4588V51.8641H8.79028V45.4198C8.79016 44.3632 9.10896 43.3312 9.70499 42.4588Z" fill="url(#paint62_linear_76_6861)"/>
<path d="M23.3389 46.297V51.8641H12.6266V41.8694C12.6264 41.482 12.4725 41.1105 12.1988 40.8364C12.0956 40.7338 11.9781 40.6468 11.8499 40.5781C12.2003 40.2953 12.4825 39.9372 12.6756 39.5304C12.8688 39.1236 12.9679 38.6786 12.9656 38.2283V37.5068H18.5446V38.0982C18.5448 38.9328 18.7669 39.7523 19.1881 40.4729C19.6093 41.1934 20.2145 41.789 20.9417 42.1986C21.6685 42.6077 22.2734 43.2026 22.6946 43.9224C23.1158 44.6423 23.3382 45.4611 23.3389 46.2951V46.297Z" fill="url(#paint63_linear_76_6861)"/>
<path d="M25.5113 51.8641V64.0865C25.5115 64.6676 25.2851 65.2258 24.8801 65.6426C24.4752 66.0593 23.9236 66.3016 23.3428 66.3181V51.8641H25.5113Z" fill="url(#paint64_linear_76_6861)"/>
<path d="M23.3389 51.8641V66.32H11.0219C10.43 66.32 9.8624 66.0849 9.4439 65.6664C9.02539 65.2479 8.79028 64.6803 8.79028 64.0885V51.8661H9.70499V60.7943C9.70499 61.1818 9.85889 61.5533 10.1328 61.8273C10.4068 62.1012 10.7783 62.2551 11.1658 62.2551C11.5532 62.2551 11.9247 62.1012 12.1987 61.8273C12.4726 61.5533 12.6265 61.1818 12.6265 60.7943V51.8641H23.3389Z" fill="url(#paint65_linear_76_6861)"/>
<path d="M23.7134 52.7591H10.7773V54.9532H23.7134V52.7591Z" fill="url(#paint66_linear_76_6861)"/>
<path d="M18.9941 50.3895H9.85486V50.7148H18.9941V50.3895Z" fill="url(#paint67_linear_76_6861)"/>
<path d="M16.9458 51.2116H9.85486V51.9627H16.9458V51.2116Z" fill="url(#paint68_linear_76_6861)"/>
<path d="M24.6873 56.1577H14.5486V56.7826H24.6873V56.1577Z" fill="url(#paint69_linear_76_6861)"/>
<path d="M23.7134 57.4312H10.7773V57.7309H23.7134V57.4312Z" fill="url(#paint70_linear_76_6861)"/>
</g>
<path d="M25.5053 50.8449V57.4884C25.5056 57.6396 25.476 57.7895 25.4182 57.9293C25.3604 58.069 25.2757 58.1961 25.1687 58.303C25.0617 58.41 24.9347 58.4948 24.7949 58.5525C24.6551 58.6103 24.5053 58.6399 24.354 58.6396H9.93754C9.78619 58.6399 9.63627 58.6103 9.49637 58.5526C9.35646 58.4948 9.22931 58.4101 9.1222 58.3031C9.01508 58.1962 8.9301 58.0692 8.87212 57.9294C8.81414 57.7896 8.7843 57.6397 8.7843 57.4884V50.8449C8.7843 50.6936 8.81414 50.5437 8.87212 50.4039C8.9301 50.2641 9.01508 50.1371 9.1222 50.0301C9.22931 49.9232 9.35646 49.8385 9.49637 49.7807C9.63627 49.723 9.78619 49.6934 9.93754 49.6936H24.354C24.5053 49.6934 24.6551 49.723 24.7949 49.7808C24.9347 49.8385 25.0617 49.9233 25.1687 50.0303C25.2757 50.1372 25.3604 50.2642 25.4182 50.404C25.476 50.5438 25.5056 50.6937 25.5053 50.8449ZM24.6754 56.7767V56.1538H14.5426V56.7767H24.6754ZM23.7015 57.7269V57.4273H10.7734V57.7269H23.7015ZM23.7015 54.9493V52.7552H10.7734V54.9493H23.7015ZM18.9821 50.7089V50.3856H9.84883V50.7089H18.9821ZM16.9339 51.9587V51.2096H9.83701V51.9587H16.9339Z" fill="white"/>
<path d="M24.6814 56.1538H14.5427V56.7767H24.6814V56.1538Z" fill="#58606B"/>
<path d="M23.7075 57.4273H10.7715V57.7269H23.7075V57.4273Z" fill="#58606B"/>
<path d="M23.7075 52.7552H10.7715V54.9493H23.7075V52.7552Z" fill="#58606B"/>
<path d="M18.9881 50.3856H9.84888V50.7089H18.9881V50.3856Z" fill="#58606B"/>
<path d="M16.9398 51.2076H9.84888V51.9587H16.9398V51.2076Z" fill="#58606B"/>
</g>
<defs>
<linearGradient id="paint0_linear_76_6861" x1="35.9886" y1="28.3361" x2="54.1953" y2="41.7406" gradientUnits="userSpaceOnUse">
<stop stop-color="#D0DADA"/>
<stop offset="1" stop-color="#6BBEC3"/>
</linearGradient>
<linearGradient id="paint1_linear_76_6861" x1="35.5649" y1="28.9108" x2="53.7719" y2="42.3181" gradientUnits="userSpaceOnUse">
<stop stop-color="#D0DADA"/>
<stop offset="1" stop-color="#6BBEC3"/>
</linearGradient>
<linearGradient id="paint2_linear_76_6861" x1="36.645" y1="27.4018" x2="54.7807" y2="40.8017" gradientUnits="userSpaceOnUse">
<stop stop-color="#D0DADA"/>
<stop offset="1" stop-color="#6BBEC3"/>
</linearGradient>
<linearGradient id="paint3_linear_76_6861" x1="35.3749" y1="29.1176" x2="53.5135" y2="42.5172" gradientUnits="userSpaceOnUse">
<stop stop-color="#D0DADA"/>
<stop offset="1" stop-color="#6BBEC3"/>
</linearGradient>
<linearGradient id="paint4_linear_76_6861" x1="36.7032" y1="27.3223" x2="54.8386" y2="40.7194" gradientUnits="userSpaceOnUse">
<stop stop-color="#D0DADA"/>
<stop offset="1" stop-color="#6BBEC3"/>
</linearGradient>
<linearGradient id="paint5_linear_76_6861" x1="34.853" y1="29.8304" x2="52.9885" y2="43.2276" gradientUnits="userSpaceOnUse">
<stop stop-color="#D0DADA"/>
<stop offset="1" stop-color="#6BBEC3"/>
</linearGradient>
<linearGradient id="paint6_linear_76_6861" x1="32.6804" y1="32.7657" x2="50.8188" y2="46.1653" gradientUnits="userSpaceOnUse">
<stop stop-color="#D0DADA"/>
<stop offset="1" stop-color="#6BBEC3"/>
</linearGradient>
<linearGradient id="paint7_linear_76_6861" x1="33.0047" y1="32.314" x2="51.1441" y2="45.7093" gradientUnits="userSpaceOnUse">
<stop stop-color="#D0DADA"/>
<stop offset="1" stop-color="#6BBEC3"/>
</linearGradient>
<linearGradient id="paint8_linear_76_6861" x1="36.7614" y1="27.2476" x2="54.8969" y2="40.6447" gradientUnits="userSpaceOnUse">
<stop stop-color="#D0DADA"/>
<stop offset="1" stop-color="#6BBEC3"/>
</linearGradient>
<linearGradient id="paint9_linear_76_6861" x1="35.4893" y1="28.9491" x2="53.6275" y2="42.3459" gradientUnits="userSpaceOnUse">
<stop stop-color="#D0DADA"/>
<stop offset="1" stop-color="#6BBEC3"/>
</linearGradient>
<linearGradient id="paint10_linear_76_6861" x1="36.8214" y1="27.1656" x2="54.9569" y2="40.5627" gradientUnits="userSpaceOnUse">
<stop stop-color="#D0DADA"/>
<stop offset="1" stop-color="#6BBEC3"/>
</linearGradient>
<linearGradient id="paint11_linear_76_6861" x1="34.9698" y1="29.671" x2="53.1041" y2="43.0698" gradientUnits="userSpaceOnUse">
<stop stop-color="#D0DADA"/>
<stop offset="1" stop-color="#6BBEC3"/>
</linearGradient>
<linearGradient id="paint12_linear_76_6861" x1="33.1245" y1="32.1657" x2="51.263" y2="45.5653" gradientUnits="userSpaceOnUse">
<stop stop-color="#D0DADA"/>
<stop offset="1" stop-color="#6BBEC3"/>
</linearGradient>
<linearGradient id="paint13_linear_76_6861" x1="32.7975" y1="32.6044" x2="50.9345" y2="46.0029" gradientUnits="userSpaceOnUse">
<stop stop-color="#D0DADA"/>
<stop offset="1" stop-color="#6BBEC3"/>
</linearGradient>
<linearGradient id="paint14_linear_76_6861" x1="36.8915" y1="27.0678" x2="55.0269" y2="40.4649" gradientUnits="userSpaceOnUse">
<stop stop-color="#D0DADA"/>
<stop offset="1" stop-color="#6BBEC3"/>
</linearGradient>
<linearGradient id="paint15_linear_76_6861" x1="35.6242" y1="28.7833" x2="53.7613" y2="42.1817" gradientUnits="userSpaceOnUse">
<stop stop-color="#D0DADA"/>
<stop offset="1" stop-color="#6BBEC3"/>
</linearGradient>
<linearGradient id="paint16_linear_76_6861" x1="36.9489" y1="27.0099" x2="55.0762" y2="40.4081" gradientUnits="userSpaceOnUse">
<stop stop-color="#D0DADA"/>
<stop offset="1" stop-color="#6BBEC3"/>
</linearGradient>
<linearGradient id="paint17_linear_76_6861" x1="32.9232" y1="32.4401" x2="51.0574" y2="45.8388" gradientUnits="userSpaceOnUse">
<stop stop-color="#D0DADA"/>
<stop offset="1" stop-color="#6BBEC3"/>
</linearGradient>
<linearGradient id="paint18_linear_76_6861" x1="36.6816" y1="27.3383" x2="54.8182" y2="40.7339" gradientUnits="userSpaceOnUse">
<stop stop-color="#D0DADA"/>
<stop offset="1" stop-color="#6BBEC3"/>
</linearGradient>
<linearGradient id="paint19_linear_76_6861" x1="35.4764" y1="28.9862" x2="53.6073" y2="42.3797" gradientUnits="userSpaceOnUse">
<stop stop-color="#D0DADA"/>
<stop offset="1" stop-color="#6BBEC3"/>
</linearGradient>
<linearGradient id="paint20_linear_76_6861" x1="36.7996" y1="27.1871" x2="54.9338" y2="40.5859" gradientUnits="userSpaceOnUse">
<stop stop-color="#D0DADA"/>
<stop offset="1" stop-color="#6BBEC3"/>
</linearGradient>
<linearGradient id="paint21_linear_76_6861" x1="35.5925" y1="28.8255" x2="53.7237" y2="42.2217" gradientUnits="userSpaceOnUse">
<stop stop-color="#D0DADA"/>
<stop offset="1" stop-color="#6BBEC3"/>
</linearGradient>
<linearGradient id="paint22_linear_76_6861" x1="36.9165" y1="27.0298" x2="55.0504" y2="40.4257" gradientUnits="userSpaceOnUse">
<stop stop-color="#D0DADA"/>
<stop offset="1" stop-color="#6BBEC3"/>
</linearGradient>
<linearGradient id="paint23_linear_76_6861" x1="35.7095" y1="28.6638" x2="53.8407" y2="42.0601" gradientUnits="userSpaceOnUse">
<stop stop-color="#D0DADA"/>
<stop offset="1" stop-color="#6BBEC3"/>
</linearGradient>
<linearGradient id="paint24_linear_76_6861" x1="34.8501" y1="29.8808" x2="53.0555" y2="43.2868" gradientUnits="userSpaceOnUse">
<stop stop-color="#D0DADA"/>
<stop offset="1" stop-color="#6BBEC3"/>
</linearGradient>
<linearGradient id="paint25_linear_76_6861" x1="37.1532" y1="26.75" x2="55.3614" y2="40.1558" gradientUnits="userSpaceOnUse">
<stop stop-color="#D0DADA"/>
<stop offset="1" stop-color="#6BBEC3"/>
</linearGradient>
<linearGradient id="paint26_linear_76_6861" x1="31.7615" y1="34.076" x2="49.9697" y2="47.4817" gradientUnits="userSpaceOnUse">
<stop stop-color="#D0DADA"/>
<stop offset="1" stop-color="#6BBEC3"/>
</linearGradient>
<linearGradient id="paint27_linear_76_6861" x1="32.9386" y1="32.415" x2="51.0759" y2="45.8162" gradientUnits="userSpaceOnUse">
<stop stop-color="#D0DADA"/>
<stop offset="1" stop-color="#6BBEC3"/>
</linearGradient>
<linearGradient id="paint28_linear_76_6861" x1="33.0642" y1="32.2444" x2="51.2027" y2="45.644" gradientUnits="userSpaceOnUse">
<stop stop-color="#D0DADA"/>
<stop offset="1" stop-color="#6BBEC3"/>
</linearGradient>
<linearGradient id="paint29_linear_76_6861" x1="33.2523" y1="32.0088" x2="51.3839" y2="45.4079" gradientUnits="userSpaceOnUse">
<stop stop-color="#D0DADA"/>
<stop offset="1" stop-color="#6BBEC3"/>
</linearGradient>
<linearGradient id="paint30_linear_76_6861" x1="33.1902" y1="32.076" x2="51.3272" y2="45.4744" gradientUnits="userSpaceOnUse">
<stop stop-color="#D0DADA"/>
<stop offset="1" stop-color="#6BBEC3"/>
</linearGradient>
<linearGradient id="paint31_linear_76_6861" x1="35.0951" y1="29.507" x2="53.2247" y2="42.9019" gradientUnits="userSpaceOnUse">
<stop stop-color="#D0DADA"/>
<stop offset="1" stop-color="#6BBEC3"/>
</linearGradient>
<linearGradient id="paint32_linear_76_6861" x1="37.4851" y1="26.3101" x2="55.6902" y2="39.7134" gradientUnits="userSpaceOnUse">
<stop stop-color="#D0DADA"/>
<stop offset="1" stop-color="#6BBEC3"/>
</linearGradient>
<linearGradient id="paint33_linear_76_6861" x1="33.6899" y1="31.4871" x2="51.892" y2="44.8878" gradientUnits="userSpaceOnUse">
<stop stop-color="#D0DADA"/>
<stop offset="1" stop-color="#6BBEC3"/>
</linearGradient>
<linearGradient id="paint34_linear_76_6861" x1="35.4821" y1="29.0234" x2="53.6857" y2="42.4255" gradientUnits="userSpaceOnUse">
<stop stop-color="#D0DADA"/>
<stop offset="1" stop-color="#6BBEC3"/>
</linearGradient>
<linearGradient id="paint35_linear_76_6861" x1="35.4915" y1="29.0182" x2="53.6905" y2="42.4165" gradientUnits="userSpaceOnUse">
<stop stop-color="#D0DADA"/>
<stop offset="1" stop-color="#6BBEC3"/>
</linearGradient>
<linearGradient id="paint36_linear_76_6861" x1="34.4117" y1="30.4224" x2="52.5503" y2="43.8221" gradientUnits="userSpaceOnUse">
<stop stop-color="#D0DADA"/>
<stop offset="1" stop-color="#6BBEC3"/>
</linearGradient>
<linearGradient id="paint37_linear_76_6861" x1="34.7016" y1="30.0315" x2="52.8374" y2="43.4315" gradientUnits="userSpaceOnUse">
<stop stop-color="#D0DADA"/>
<stop offset="1" stop-color="#6BBEC3"/>
</linearGradient>
<linearGradient id="paint38_linear_76_6861" x1="34.907" y1="29.8014" x2="53.1153" y2="43.2072" gradientUnits="userSpaceOnUse">
<stop stop-color="#D0DADA"/>
<stop offset="1" stop-color="#6BBEC3"/>
</linearGradient>
<linearGradient id="paint39_linear_76_6861" x1="35.0348" y1="29.6276" x2="53.2418" y2="43.0349" gradientUnits="userSpaceOnUse">
<stop stop-color="#D0DADA"/>
<stop offset="1" stop-color="#6BBEC3"/>
</linearGradient>
<linearGradient id="paint40_linear_76_6861" x1="35.1588" y1="29.4584" x2="53.3657" y2="42.8657" gradientUnits="userSpaceOnUse">
<stop stop-color="#D0DADA"/>
<stop offset="1" stop-color="#6BBEC3"/>
</linearGradient>
<linearGradient id="paint41_linear_76_6861" x1="33.1445" y1="32.136" x2="51.2831" y2="45.5356" gradientUnits="userSpaceOnUse">
<stop stop-color="#D0DADA"/>
<stop offset="1" stop-color="#6BBEC3"/>
</linearGradient>
<linearGradient id="paint42_linear_76_6861" x1="33.432" y1="31.7481" x2="51.569" y2="45.1466" gradientUnits="userSpaceOnUse">
<stop stop-color="#D0DADA"/>
<stop offset="1" stop-color="#6BBEC3"/>
</linearGradient>
<linearGradient id="paint43_linear_76_6861" x1="33.5164" y1="31.637" x2="51.6534" y2="45.0354" gradientUnits="userSpaceOnUse">
<stop stop-color="#D0DADA"/>
<stop offset="1" stop-color="#6BBEC3"/>
</linearGradient>
<linearGradient id="paint44_linear_76_6861" x1="33.5813" y1="31.5318" x2="51.7194" y2="44.9286" gradientUnits="userSpaceOnUse">
<stop stop-color="#D0DADA"/>
<stop offset="1" stop-color="#6BBEC3"/>
</linearGradient>
<linearGradient id="paint45_linear_76_6861" x1="33.6443" y1="31.4652" x2="51.78" y2="44.8652" gradientUnits="userSpaceOnUse">
<stop stop-color="#D0DADA"/>
<stop offset="1" stop-color="#6BBEC3"/>
</linearGradient>
<linearGradient id="paint46_linear_76_6861" x1="33.7026" y1="31.3846" x2="51.8384" y2="44.7846" gradientUnits="userSpaceOnUse">
<stop stop-color="#D0DADA"/>
<stop offset="1" stop-color="#6BBEC3"/>
</linearGradient>
<linearGradient id="paint47_linear_76_6861" x1="33.7656" y1="31.2972" x2="51.9026" y2="44.6956" gradientUnits="userSpaceOnUse">
<stop stop-color="#D0DADA"/>
<stop offset="1" stop-color="#6BBEC3"/>
</linearGradient>
<linearGradient id="paint48_linear_76_6861" x1="33.8257" y1="31.2203" x2="51.9588" y2="44.618" gradientUnits="userSpaceOnUse">
<stop stop-color="#D0DADA"/>
<stop offset="1" stop-color="#6BBEC3"/>
</linearGradient>
<linearGradient id="paint49_linear_76_6861" x1="32.5704" y1="32.9152" x2="50.7077" y2="46.3164" gradientUnits="userSpaceOnUse">
<stop stop-color="#D0DADA"/>
<stop offset="1" stop-color="#6BBEC3"/>
</linearGradient>
<linearGradient id="paint50_linear_76_6861" x1="32.8574" y1="32.5285" x2="50.9945" y2="45.927" gradientUnits="userSpaceOnUse">
<stop stop-color="#D0DADA"/>
<stop offset="1" stop-color="#6BBEC3"/>
</linearGradient>
<linearGradient id="paint51_linear_76_6861" x1="31.0242" y1="35.0863" x2="49.2293" y2="48.4896" gradientUnits="userSpaceOnUse">
<stop stop-color="#D0DADA"/>
<stop offset="1" stop-color="#6BBEC3"/>
</linearGradient>
<linearGradient id="paint52_linear_76_6861" x1="31.0117" y1="35.0263" x2="49.1502" y2="48.4259" gradientUnits="userSpaceOnUse">
<stop stop-color="#D0DADA"/>
<stop offset="1" stop-color="#6BBEC3"/>
</linearGradient>
<linearGradient id="paint53_linear_76_6861" x1="10.7439" y1="42.0626" x2="10.1446" y2="57.244" gradientUnits="userSpaceOnUse">
<stop stop-color="#D0DADA"/>
<stop offset="1" stop-color="#6BBEC3"/>
</linearGradient>
<linearGradient id="paint54_linear_76_6861" x1="22.9328" y1="42.5436" x2="22.3335" y2="57.7269" gradientUnits="userSpaceOnUse">
<stop stop-color="#D0DADA"/>
<stop offset="1" stop-color="#6BBEC3"/>
</linearGradient>
<linearGradient id="paint55_linear_76_6861" x1="15.966" y1="42.2695" x2="15.3667" y2="57.4509" gradientUnits="userSpaceOnUse">
<stop stop-color="#D0DADA"/>
<stop offset="1" stop-color="#6BBEC3"/>
</linearGradient>
<linearGradient id="paint56_linear_76_6861" x1="11.7295" y1="42.102" x2="11.1302" y2="57.2834" gradientUnits="userSpaceOnUse">
<stop stop-color="#D0DADA"/>
<stop offset="1" stop-color="#6BBEC3"/>
</linearGradient>
<linearGradient id="paint57_linear_76_6861" x1="11.3668" y1="42.0882" x2="10.7675" y2="57.2696" gradientUnits="userSpaceOnUse">
<stop stop-color="#D0DADA"/>
<stop offset="1" stop-color="#6BBEC3"/>
</linearGradient>
<linearGradient id="paint58_linear_76_6861" x1="14.1445" y1="42.1986" x2="13.5452" y2="57.38" gradientUnits="userSpaceOnUse">
<stop stop-color="#D0DADA"/>
<stop offset="1" stop-color="#6BBEC3"/>
</linearGradient>
<linearGradient id="paint59_linear_76_6861" x1="16.7644" y1="42.3011" x2="16.1651" y2="57.4825" gradientUnits="userSpaceOnUse">
<stop stop-color="#D0DADA"/>
<stop offset="1" stop-color="#6BBEC3"/>
</linearGradient>
<linearGradient id="paint60_linear_76_6861" x1="16.6777" y1="42.2971" x2="16.0784" y2="57.4785" gradientUnits="userSpaceOnUse">
<stop stop-color="#D0DADA"/>
<stop offset="1" stop-color="#6BBEC3"/>
</linearGradient>
<linearGradient id="paint61_linear_76_6861" x1="22.1146" y1="42.512" x2="21.5153" y2="57.6934" gradientUnits="userSpaceOnUse">
<stop stop-color="#D0DADA"/>
<stop offset="1" stop-color="#6BBEC3"/>
</linearGradient>
<linearGradient id="paint62_linear_76_6861" x1="9.50786" y1="42.0152" x2="8.90856" y2="57.1966" gradientUnits="userSpaceOnUse">
<stop stop-color="#D0DADA"/>
<stop offset="1" stop-color="#6BBEC3"/>
</linearGradient>
<linearGradient id="paint63_linear_76_6861" x1="17.7481" y1="42.3405" x2="17.1489" y2="57.5219" gradientUnits="userSpaceOnUse">
<stop stop-color="#D0DADA"/>
<stop offset="1" stop-color="#6BBEC3"/>
</linearGradient>
<linearGradient id="paint64_linear_76_6861" x1="25.0322" y1="42.6264" x2="24.4329" y2="57.8097" gradientUnits="userSpaceOnUse">
<stop stop-color="#D0DADA"/>
<stop offset="1" stop-color="#6BBEC3"/>
</linearGradient>
<linearGradient id="paint65_linear_76_6861" x1="16.727" y1="42.2991" x2="16.1277" y2="57.4805" gradientUnits="userSpaceOnUse">
<stop stop-color="#D0DADA"/>
<stop offset="1" stop-color="#6BBEC3"/>
</linearGradient>
<linearGradient id="paint66_linear_76_6861" x1="17.6988" y1="42.3385" x2="17.0995" y2="57.5199" gradientUnits="userSpaceOnUse">
<stop stop-color="#D0DADA"/>
<stop offset="1" stop-color="#6BBEC3"/>
</linearGradient>
<linearGradient id="paint67_linear_76_6861" x1="14.7537" y1="42.2203" x2="14.1544" y2="57.4036" gradientUnits="userSpaceOnUse">
<stop stop-color="#D0DADA"/>
<stop offset="1" stop-color="#6BBEC3"/>
</linearGradient>
<linearGradient id="paint68_linear_76_6861" x1="13.7719" y1="42.1828" x2="13.1726" y2="57.3642" gradientUnits="userSpaceOnUse">
<stop stop-color="#D0DADA"/>
<stop offset="1" stop-color="#6BBEC3"/>
</linearGradient>
<linearGradient id="paint69_linear_76_6861" x1="20.1729" y1="42.4352" x2="19.5736" y2="57.6165" gradientUnits="userSpaceOnUse">
<stop stop-color="#D0DADA"/>
<stop offset="1" stop-color="#6BBEC3"/>
</linearGradient>
<linearGradient id="paint70_linear_76_6861" x1="17.8466" y1="42.3446" x2="17.2473" y2="57.5259" gradientUnits="userSpaceOnUse">
<stop stop-color="#D0DADA"/>
<stop offset="1" stop-color="#6BBEC3"/>
</linearGradient>
<clipPath id="clip0_76_6861">
<rect width="79" height="67.3119" fill="white" transform="translate(0 0.439392)"/>
</clipPath>
</defs>
</svg>
