<svg width="92" height="58" viewBox="0 0 92 58" fill="none" xmlns="http://www.w3.org/2000/svg">
<path d="M61.2502 3.72088C61.2016 3.72088 61.1536 3.71128 61.1087 3.69261C61.0639 3.67395 61.0232 3.6466 60.989 3.61214C60.9548 3.57767 60.9278 3.53679 60.9095 3.49183C60.8912 3.44687 60.8819 3.39872 60.8823 3.35017V1.12591H42.8664V3.35017C42.8708 3.40138 42.8646 3.45295 42.8481 3.50162C42.8315 3.55029 42.8051 3.59499 42.7703 3.63288C42.7356 3.67078 42.6934 3.70103 42.6463 3.72173C42.5993 3.74243 42.5485 3.75312 42.4971 3.75312C42.4457 3.75312 42.3948 3.74243 42.3478 3.72173C42.3007 3.70103 42.2585 3.67078 42.2238 3.63288C42.189 3.59499 42.1626 3.55029 42.146 3.50162C42.1295 3.45295 42.1233 3.40138 42.1277 3.35017V0.755204C42.1277 0.656886 42.1668 0.562595 42.2363 0.493073C42.3058 0.423552 42.4001 0.384495 42.4985 0.384495H61.2502C61.3485 0.384495 61.4428 0.423552 61.5123 0.493073C61.5818 0.562595 61.6209 0.656886 61.6209 0.755204V3.35017C61.6209 3.44849 61.5818 3.54278 61.5123 3.6123C61.4428 3.68182 61.3485 3.72088 61.2502 3.72088Z" fill="#06A6DC"/>
<path d="M53.8275 45.451H68.1223V7.6414H53.8275L53.8275 45.451Z" fill="#C3E9F6"/>
<path d="M53.8275 45.451H68.1223V7.6414H53.8275L53.8275 45.451Z" fill="#E3DFE5"/>
<path d="M57.3323 45.451H59.4891L59.4891 7.6414H57.3323L57.3323 45.451Z" fill="#F8F5F9"/>
<path d="M35.424 45.451H49.7188L49.7187 7.6414H35.424L35.424 45.451Z" fill="#E3DFE5"/>
<path d="M39.1338 45.451H41.1559L41.1559 7.6414H39.1338L39.1338 45.451Z" fill="#F8F5F9"/>
<path d="M59.7618 6.06872H62.1882V2.95138L59.7618 2.95138V6.06872Z" fill="#AFAFAE"/>
<path d="M41.3582 6.06872H43.7847V2.95138L41.3582 2.95138V6.06872Z" fill="#AFAFAE"/>
<path d="M59.7588 6.06872H60.7698V2.95138H59.7588V6.06872Z" fill="#E4F8FF"/>
<path d="M41.3581 6.06872H42.3691V2.95138H41.3581V6.06872Z" fill="#E4F8FF"/>
<path d="M68.1223 7.64141H53.8275C53.8275 7.64141 54.3021 5.36098 61.1771 5.36098C67.2433 5.36098 68.1223 7.64141 68.1223 7.64141Z" fill="#AFAFAE"/>
<path d="M49.7215 7.64141H35.4268C35.4268 7.64141 35.8986 5.36098 42.7735 5.36098C48.8313 5.36098 49.7215 7.64141 49.7215 7.64141Z" fill="#AFAFAE"/>
<path d="M16.1752 57.6282L87.4722 57.6282V23.6212L16.1752 23.6212V57.6282Z" fill="#786574"/>
<path d="M63.275 57.6254H85.3716V31.5072L63.275 31.5072V57.6254Z" fill="#E2E3F7"/>
<path d="M64.5416 56.1285H84.105V33.0041H64.5416V56.1285Z" fill="#06A6DC"/>
<path d="M80.9118 34.8801H64.5416V56.1285H80.9118V34.8801Z" fill="#65D6FD"/>
<path d="M16.1752 26.6347L87.4722 26.6347V15.6369L16.1752 15.6369V26.6347Z" fill="#756371"/>
<path d="M13.5464 57.6282L58.245 57.6282L58.245 23.6212L13.5464 23.6212L13.5464 57.6282Z" fill="#534350"/>
<path d="M13.5464 26.6347L58.245 26.6347V15.6369L13.5464 15.6369V26.6347Z" fill="#564452"/>
<g opacity="0.57">
<path d="M18.5287 27.2666L87.5706 27.2666V20.9055L18.5287 20.9055V27.2666Z" fill="#534350"/>
</g>
<path d="M13.4762 21.5206L91.4741 21.5206V14.9489L13.4762 14.9489V21.5206Z" fill="#65D6FD"/>
<path d="M10.8447 21.5206L60.2952 21.5206V14.9489L10.8447 14.9489V21.5206Z" fill="#06A6DC"/>
<path d="M84.3323 38.0958H78.8334V33.0462H77.9348V38.0958H73.7334V33.0462H72.8347V38.0958H68.7344V33.0462H67.8329V38.0958H65.1116V39.295H67.8329V56.1173H68.7344V39.295H72.8347V56.1173H73.7334V39.295H77.9348V56.1173H78.8334V39.295H84.3323V38.0958Z" fill="#606B9D"/>
<path d="M27.6306 21.47C27.5732 21.4685 27.5166 21.4557 27.4642 21.4323C27.4117 21.4089 27.3644 21.3754 27.325 21.3336C27.2856 21.2918 27.2548 21.2427 27.2345 21.189C27.2142 21.1353 27.2047 21.0781 27.2065 21.0207V17.9679H8.6233V21.0207C8.6233 21.0778 8.61204 21.1344 8.59016 21.1872C8.56829 21.2401 8.53622 21.288 8.4958 21.3285C8.45538 21.3689 8.40739 21.4009 8.35458 21.4228C8.30177 21.4447 8.24516 21.456 8.188 21.456C8.13083 21.456 8.07423 21.4447 8.02141 21.4228C7.9686 21.4009 7.92061 21.3689 7.88019 21.3285C7.83977 21.288 7.8077 21.2401 7.78583 21.1872C7.76395 21.1344 7.75269 21.0778 7.75269 21.0207V17.5382C7.75232 17.4808 7.76331 17.4239 7.78502 17.3708C7.80673 17.3176 7.83874 17.2693 7.87919 17.2286C7.91965 17.1879 7.96777 17.1556 8.02076 17.1335C8.07376 17.1115 8.13059 17.1001 8.188 17.1001H27.6306C27.7463 17.1009 27.857 17.1473 27.9386 17.2294C28.0201 17.3115 28.0659 17.4225 28.0659 17.5382V21.0207C28.0678 21.079 28.0579 21.1371 28.0369 21.1916C28.0159 21.246 27.9841 21.2957 27.9435 21.3376C27.9029 21.3795 27.8542 21.4128 27.8005 21.4356C27.7467 21.4583 27.689 21.47 27.6306 21.47Z" fill="#4E85B0"/>
<path d="M15.6893 28.2354H0.24585V57.6254H15.6893V28.2354Z" fill="#C3E9F6"/>
<path d="M15.6893 28.2354H0.24585V57.6254H15.6893V28.2354Z" fill="#E3DFE5"/>
<path d="M11.9007 28.2354H9.5697V57.6254H11.9007V28.2354Z" fill="#F8F5F9"/>
<path d="M9.27771 21.0207H6.65747V25.8174H9.27771V21.0207Z" fill="#AFAFAE"/>
<path d="M35.5673 28.2354H20.1239V57.6254H35.5673V28.2354Z" fill="#E3DFE5"/>
<path d="M29.1556 21.0207H26.5354V25.8174H29.1556V21.0207Z" fill="#AFAFAE"/>
<path d="M9.27777 21.0207H8.18811V25.8174H9.27777V21.0207Z" fill="#E4F8FF"/>
<path d="M29.1556 21.0207H28.0659V25.8174H29.1556V21.0207Z" fill="#E4F8FF"/>
<path d="M31.5596 28.2354H29.3746V57.6254H31.5596V28.2354Z" fill="#F8F5F9"/>
<path d="M0.24585 28.2354H15.6921C15.6921 28.2354 15.181 24.7278 7.75272 24.7278C1.1979 24.7278 0.24585 28.2354 0.24585 28.2354Z" fill="#AFAFAE"/>
<path d="M20.1266 28.2354H35.5728C35.5728 28.2354 35.0701 24.7278 27.6306 24.7278C21.0758 24.7278 20.1266 28.2354 20.1266 28.2354Z" fill="#AFAFAE"/>
<path d="M55.2401 30.3389C55.1966 30.3389 55.1535 30.3304 55.1133 30.3137C55.0731 30.2971 55.0365 30.2727 55.0058 30.2419C54.975 30.2111 54.9506 30.1746 54.9339 30.1344C54.9173 30.0942 54.9087 30.0511 54.9087 30.0076V26.8649H44.2592V30.0076C44.2516 30.0905 44.2132 30.1677 44.1517 30.2238C44.0901 30.28 44.0098 30.3112 43.9264 30.3112C43.8431 30.3112 43.7628 30.28 43.7012 30.2238C43.6396 30.1677 43.6013 30.0905 43.5936 30.0076V26.5251C43.5936 26.4372 43.6285 26.353 43.6907 26.2908C43.7528 26.2287 43.8371 26.1937 43.925 26.1937H55.2401C55.328 26.1937 55.4123 26.2287 55.4744 26.2908C55.5366 26.353 55.5715 26.4372 55.5715 26.5251V30.0076C55.5715 30.0954 55.5366 30.1797 55.4744 30.2419C55.4123 30.304 55.328 30.3389 55.2401 30.3389Z" fill="#06A6DC"/>
<path d="M48.2836 35.3042H39.4961V58.0018H48.2836V35.3042Z" fill="#C3E9F6"/>
<path d="M48.2836 35.3042H39.4961V58.0018H48.2836V35.3042Z" fill="#E3DFE5"/>
<path d="M46.1267 35.3042H44.8011V58.0018H46.1267V35.3042Z" fill="#F8F5F9"/>
<path d="M44.6354 29.7295H43.1442V33.4338H44.6354V29.7295Z" fill="#AFAFAE"/>
<path d="M59.5932 35.3042H50.8057V58.0018H59.5932V35.3042Z" fill="#E3DFE5"/>
<path d="M55.945 29.7295H54.4537V33.4338H55.945V29.7295Z" fill="#AFAFAE"/>
<path d="M44.6355 29.7295H44.0149V33.4338H44.6355V29.7295Z" fill="#E4F8FF"/>
<path d="M55.945 29.7295H55.3243V33.4338H55.945V29.7295Z" fill="#E4F8FF"/>
<path d="M57.3126 35.3042H56.0685V58.0018H57.3126V35.3042Z" fill="#F8F5F9"/>
<path d="M39.4961 35.3042H48.2836C48.2836 35.3042 48.0028 32.5941 43.7677 32.5941C40.0381 32.5941 39.4961 35.3042 39.4961 35.3042Z" fill="#AFAFAE"/>
<path d="M50.7971 35.3042H59.5818C59.5818 35.3042 59.301 32.5941 55.0659 32.5941C51.3588 32.5941 50.7971 35.3042 50.7971 35.3042Z" fill="#AFAFAE"/>
<path d="M73.7727 56.9626H74.6714V32.1082H73.7727V56.9626Z" fill="#E2E3F7"/>
<path d="M78.8728 56.9626H79.7715V32.1082H78.8728V56.9626Z" fill="#E2E3F7"/>
<path d="M68.7766 56.9626H69.6753V32.1082H68.7766V56.9626Z" fill="#E2E3F7"/>
<path d="M85.2732 39.2978V38.0986H64.1736V39.2978H85.2732Z" fill="#E2E3F7"/>
<path d="M63.3691 18.9375H62.7146V16.8166H63.3981C63.6038 16.8166 63.7799 16.8591 63.9262 16.944C64.0726 17.0282 64.1848 17.1494 64.2628 17.3075C64.3408 17.4649 64.3798 17.6534 64.3798 17.8729C64.3798 18.0938 64.3404 18.284 64.2617 18.4435C64.183 18.6023 64.0684 18.7245 63.9179 18.8101C63.7674 18.895 63.5845 18.9375 63.3691 18.9375ZM62.9714 18.7097H63.3525C63.5279 18.7097 63.6732 18.6758 63.7885 18.6082C63.9038 18.5405 63.9897 18.4442 64.0463 18.3192C64.103 18.1943 64.1313 18.0455 64.1313 17.8729C64.1313 17.7017 64.1033 17.5543 64.0474 17.4307C63.9915 17.3064 63.9079 17.2112 63.7968 17.1449C63.6856 17.0779 63.5472 17.0444 63.3815 17.0444H62.9714V18.7097ZM65.2455 18.9748C65.1447 18.9748 65.0533 18.9558 64.9711 18.9178C64.889 18.8791 64.8237 18.8236 64.7754 18.7511C64.7271 18.6779 64.7029 18.5895 64.7029 18.486C64.7029 18.3948 64.7208 18.321 64.7567 18.2644C64.7926 18.2071 64.8406 18.1622 64.9007 18.1297C64.9608 18.0973 65.027 18.0731 65.0995 18.0572C65.1727 18.0407 65.2462 18.0276 65.3201 18.0179C65.4168 18.0055 65.4951 17.9961 65.5552 17.9899C65.6159 17.983 65.6601 17.9716 65.6877 17.9558C65.716 17.9399 65.7302 17.9123 65.7302 17.8729V17.8646C65.7302 17.7624 65.7022 17.6831 65.6463 17.6264C65.5911 17.5698 65.5072 17.5415 65.3947 17.5415C65.278 17.5415 65.1865 17.5671 65.1202 17.6182C65.054 17.6692 65.0074 17.7238 64.9804 17.7818L64.7485 17.6989C64.7899 17.6023 64.8451 17.527 64.9142 17.4732C64.9839 17.4186 65.0598 17.3807 65.142 17.3593C65.2248 17.3372 65.3063 17.3261 65.3864 17.3261C65.4375 17.3261 65.4961 17.3323 65.5624 17.3448C65.6294 17.3565 65.6939 17.381 65.7561 17.4183C65.8189 17.4556 65.871 17.5118 65.9125 17.5871C65.9539 17.6623 65.9746 17.7631 65.9746 17.8895V18.9375H65.7302V18.7221H65.7178C65.7012 18.7566 65.6736 18.7935 65.6349 18.8329C65.5963 18.8722 65.5448 18.9057 65.4806 18.9333C65.4164 18.961 65.3381 18.9748 65.2455 18.9748ZM65.2828 18.7552C65.3795 18.7552 65.4609 18.7362 65.5272 18.6983C65.5942 18.6603 65.6446 18.6113 65.6784 18.5512C65.7129 18.4912 65.7302 18.428 65.7302 18.3617V18.138C65.7198 18.1504 65.6971 18.1618 65.6618 18.1722C65.6273 18.1819 65.5873 18.1905 65.5417 18.1981C65.4968 18.205 65.453 18.2112 65.4102 18.2167C65.3681 18.2216 65.3339 18.2257 65.3077 18.2291C65.2442 18.2374 65.1848 18.2509 65.1296 18.2695C65.075 18.2875 65.0308 18.3148 64.997 18.3513C64.9639 18.3872 64.9473 18.4363 64.9473 18.4984C64.9473 18.5833 64.9787 18.6475 65.0415 18.691C65.105 18.7338 65.1855 18.7552 65.2828 18.7552ZM66.4207 18.9375V17.3468H66.6651V18.9375H66.4207ZM66.5449 17.0817C66.4973 17.0817 66.4562 17.0655 66.4217 17.0331C66.3879 17.0006 66.371 16.9616 66.371 16.916C66.371 16.8705 66.3879 16.8315 66.4217 16.799C66.4562 16.7666 66.4973 16.7503 66.5449 16.7503C66.5926 16.7503 66.6333 16.7666 66.6671 16.799C66.7016 16.8315 66.7189 16.8705 66.7189 16.916C66.7189 16.9616 66.7016 17.0006 66.6671 17.0331C66.6333 17.0655 66.5926 17.0817 66.5449 17.0817ZM67.1127 18.9375V17.3468H67.3488V17.5871H67.3654C67.3944 17.5084 67.4468 17.4445 67.5228 17.3955C67.5987 17.3465 67.6843 17.322 67.7796 17.322C67.7975 17.322 67.82 17.3223 67.8469 17.323C67.8738 17.3237 67.8942 17.3247 67.908 17.3261V17.5747C67.8997 17.5726 67.8807 17.5695 67.8511 17.5653C67.8221 17.5605 67.7913 17.5581 67.7589 17.5581C67.6816 17.5581 67.6125 17.5743 67.5518 17.6068C67.4917 17.6385 67.4441 17.6827 67.4089 17.7393C67.3743 17.7952 67.3571 17.8591 67.3571 17.9309V18.9375H67.1127ZM68.4035 19.534C68.3621 19.534 68.3252 19.5305 68.2927 19.5236C68.2603 19.5174 68.2378 19.5112 68.2254 19.505L68.2875 19.2896C68.3469 19.3048 68.3994 19.3103 68.445 19.3062C68.4905 19.302 68.5309 19.2816 68.5661 19.2451C68.602 19.2092 68.6348 19.1508 68.6645 19.07L68.7101 18.9458L68.1219 17.3468H68.387L68.826 18.6144H68.8426L69.2817 17.3468H69.5468L68.8716 19.1695C68.8412 19.2516 68.8036 19.3196 68.7587 19.3735C68.7139 19.428 68.6617 19.4684 68.6024 19.4946C68.5437 19.5209 68.4774 19.534 68.4035 19.534ZM70.7227 16.8166H71.0292L71.75 18.5771H71.7749L72.4956 16.8166H72.8021V18.9375H72.5619V17.3261H72.5412L71.8784 18.9375H71.6464L70.9837 17.3261H70.963V18.9375H70.7227V16.8166ZM73.752 18.9748C73.6512 18.9748 73.5598 18.9558 73.4776 18.9178C73.3954 18.8791 73.3302 18.8236 73.2819 18.7511C73.2336 18.6779 73.2094 18.5895 73.2094 18.486C73.2094 18.3948 73.2273 18.321 73.2632 18.2644C73.2991 18.2071 73.3471 18.1622 73.4072 18.1297C73.4672 18.0973 73.5335 18.0731 73.606 18.0572C73.6792 18.0407 73.7527 18.0276 73.8266 18.0179C73.9232 18.0055 74.0016 17.9961 74.0617 17.9899C74.1224 17.983 74.1666 17.9716 74.1942 17.9558C74.2225 17.9399 74.2367 17.9123 74.2367 17.8729V17.8646C74.2367 17.7624 74.2087 17.6831 74.1528 17.6264C74.0976 17.5698 74.0137 17.5415 73.9012 17.5415C73.7845 17.5415 73.693 17.5671 73.6267 17.6182C73.5605 17.6692 73.5139 17.7238 73.4869 17.7818L73.255 17.6989C73.2964 17.6023 73.3516 17.527 73.4206 17.4732C73.4904 17.4186 73.5663 17.3807 73.6485 17.3593C73.7313 17.3372 73.8128 17.3261 73.8929 17.3261C73.944 17.3261 74.0026 17.3323 74.0689 17.3448C74.1359 17.3565 74.2004 17.381 74.2626 17.4183C74.3254 17.4556 74.3775 17.5118 74.4189 17.5871C74.4604 17.6623 74.4811 17.7631 74.4811 17.8895V18.9375H74.2367V18.7221H74.2243C74.2077 18.7566 74.1801 18.7935 74.1414 18.8329C74.1027 18.8722 74.0513 18.9057 73.9871 18.9333C73.9229 18.961 73.8445 18.9748 73.752 18.9748ZM73.7893 18.7552C73.886 18.7552 73.9674 18.7362 74.0337 18.6983C74.1007 18.6603 74.1511 18.6113 74.1849 18.5512C74.2194 18.4912 74.2367 18.428 74.2367 18.3617V18.138C74.2263 18.1504 74.2035 18.1618 74.1683 18.1722C74.1338 18.1819 74.0938 18.1905 74.0482 18.1981C74.0033 18.205 73.9595 18.2112 73.9167 18.2167C73.8746 18.2216 73.8404 18.2257 73.8142 18.2291C73.7507 18.2374 73.6913 18.2509 73.636 18.2695C73.5815 18.2875 73.5373 18.3148 73.5035 18.3513C73.4704 18.3872 73.4538 18.4363 73.4538 18.4984C73.4538 18.5833 73.4852 18.6475 73.548 18.691C73.6115 18.7338 73.692 18.7552 73.7893 18.7552ZM75.1716 17.9806V18.9375H74.9272V17.3468H75.1633V17.5954H75.184C75.2213 17.5146 75.2779 17.4497 75.3538 17.4007C75.4298 17.351 75.5278 17.3261 75.6479 17.3261C75.7556 17.3261 75.8499 17.3482 75.9306 17.3924C76.0114 17.4359 76.0742 17.5022 76.1191 17.5912C76.164 17.6796 76.1864 17.7914 76.1864 17.9268V18.9375H75.942V17.9433C75.942 17.8184 75.9096 17.721 75.8447 17.6513C75.7798 17.5809 75.6907 17.5457 75.5775 17.5457C75.4995 17.5457 75.4298 17.5626 75.3683 17.5964C75.3076 17.6302 75.2596 17.6796 75.2244 17.7445C75.1892 17.8094 75.1716 17.8881 75.1716 17.9806ZM77.1011 18.9748C77.0003 18.9748 76.9088 18.9558 76.8267 18.9178C76.7445 18.8791 76.6793 18.8236 76.6309 18.7511C76.5826 18.6779 76.5584 18.5895 76.5584 18.486C76.5584 18.3948 76.5764 18.321 76.6123 18.2644C76.6482 18.2071 76.6962 18.1622 76.7562 18.1297C76.8163 18.0973 76.8826 18.0731 76.9551 18.0572C77.0283 18.0407 77.1018 18.0276 77.1757 18.0179C77.2723 18.0055 77.3507 17.9961 77.4107 17.9899C77.4715 17.983 77.5157 17.9716 77.5433 17.9558C77.5716 17.9399 77.5857 17.9123 77.5857 17.8729V17.8646C77.5857 17.7624 77.5578 17.6831 77.5019 17.6264C77.4466 17.5698 77.3627 17.5415 77.2502 17.5415C77.1335 17.5415 77.0421 17.5671 76.9758 17.6182C76.9095 17.6692 76.8629 17.7238 76.836 17.7818L76.604 17.6989C76.6454 17.6023 76.7007 17.527 76.7697 17.4732C76.8394 17.4186 76.9154 17.3807 76.9975 17.3593C77.0804 17.3372 77.1618 17.3261 77.2419 17.3261C77.293 17.3261 77.3517 17.3323 77.418 17.3448C77.4849 17.3565 77.5495 17.381 77.6116 17.4183C77.6745 17.4556 77.7266 17.5118 77.768 17.5871C77.8094 17.6623 77.8301 17.7631 77.8301 17.8895V18.9375H77.5857V18.7221H77.5733C77.5567 18.7566 77.5291 18.7935 77.4905 18.8329C77.4518 18.8722 77.4004 18.9057 77.3362 18.9333C77.272 18.961 77.1936 18.9748 77.1011 18.9748ZM77.1384 18.7552C77.235 18.7552 77.3165 18.7362 77.3828 18.6983C77.4497 18.6603 77.5001 18.6113 77.534 18.5512C77.5685 18.4912 77.5857 18.428 77.5857 18.3617V18.138C77.5754 18.1504 77.5526 18.1618 77.5174 18.1722C77.4829 18.1819 77.4428 18.1905 77.3973 18.1981C77.3524 18.205 77.3086 18.2112 77.2657 18.2167C77.2236 18.2216 77.1895 18.2257 77.1632 18.2291C77.0997 18.2374 77.0403 18.2509 76.9851 18.2695C76.9306 18.2875 76.8864 18.3148 76.8526 18.3513C76.8194 18.3872 76.8028 18.4363 76.8028 18.4984C76.8028 18.5833 76.8343 18.6475 76.8971 18.691C76.9606 18.7338 77.041 18.7552 77.1384 18.7552ZM78.9183 19.5671C78.8002 19.5671 78.6987 19.5519 78.6138 19.5216C78.5289 19.4919 78.4581 19.4525 78.4015 19.4035C78.3456 19.3552 78.3011 19.3034 78.2679 19.2482L78.4626 19.1115C78.4847 19.1405 78.5127 19.1736 78.5465 19.2109C78.5803 19.2488 78.6266 19.2816 78.6853 19.3093C78.7446 19.3376 78.8223 19.3517 78.9183 19.3517C79.0467 19.3517 79.1527 19.3206 79.2362 19.2585C79.3197 19.1964 79.3615 19.099 79.3615 18.9665V18.6434H79.3408C79.3228 18.6724 79.2973 18.7083 79.2642 18.7511C79.2317 18.7932 79.1848 18.8308 79.1233 18.864C79.0626 18.8964 78.9804 18.9126 78.8768 18.9126C78.7484 18.9126 78.6331 18.8823 78.531 18.8215C78.4295 18.7607 78.349 18.6724 78.2897 18.5564C78.231 18.4404 78.2017 18.2996 78.2017 18.1339C78.2017 17.9709 78.2303 17.8291 78.2876 17.7083C78.3449 17.5867 78.4246 17.4929 78.5268 17.4266C78.629 17.3596 78.7471 17.3261 78.881 17.3261C78.9845 17.3261 79.0667 17.3434 79.1275 17.3779C79.1889 17.4117 79.2358 17.4504 79.2683 17.4939C79.3014 17.5367 79.327 17.5719 79.3449 17.5995H79.3698V17.3468H79.6059V18.9831C79.6059 19.1197 79.5748 19.2309 79.5127 19.3165C79.4512 19.4028 79.3684 19.466 79.2642 19.506C79.1606 19.5467 79.0453 19.5671 78.9183 19.5671ZM78.91 18.6931C79.008 18.6931 79.0909 18.6707 79.1585 18.6258C79.2262 18.5809 79.2776 18.5163 79.3128 18.4321C79.348 18.3479 79.3656 18.2471 79.3656 18.1297C79.3656 18.0151 79.3484 17.914 79.3139 17.8263C79.2793 17.7386 79.2283 17.6699 79.1606 17.6202C79.0929 17.5705 79.0094 17.5457 78.91 17.5457C78.8064 17.5457 78.7201 17.5719 78.6511 17.6244C78.5827 17.6768 78.5313 17.7473 78.4968 17.8356C78.463 17.924 78.446 18.022 78.446 18.1297C78.446 18.2402 78.4633 18.3379 78.4978 18.4228C78.533 18.507 78.5848 18.5733 78.6532 18.6216C78.7222 18.6693 78.8078 18.6931 78.91 18.6931ZM80.7202 18.9706C80.5669 18.9706 80.4347 18.9368 80.3236 18.8691C80.2131 18.8008 80.1278 18.7055 80.0678 18.5833C80.0084 18.4604 79.9787 18.3175 79.9787 18.1546C79.9787 17.9917 80.0084 17.8481 80.0678 17.7238C80.1278 17.5988 80.2114 17.5015 80.3184 17.4318C80.4261 17.3613 80.5517 17.3261 80.6953 17.3261C80.7782 17.3261 80.86 17.3399 80.9408 17.3675C81.0215 17.3952 81.0951 17.44 81.1613 17.5022C81.2276 17.5636 81.2804 17.6451 81.3198 17.7466C81.3591 17.8481 81.3788 17.973 81.3788 18.1214V18.225H80.1527V18.0137H81.1303C81.1303 17.924 81.1123 17.8439 81.0764 17.7735C81.0412 17.7031 80.9908 17.6475 80.9252 17.6068C80.8603 17.566 80.7837 17.5457 80.6953 17.5457C80.598 17.5457 80.5138 17.5698 80.4426 17.6182C80.3722 17.6658 80.318 17.7279 80.2801 17.8046C80.2421 17.8812 80.2231 17.9634 80.2231 18.051V18.1919C80.2231 18.312 80.2438 18.4138 80.2852 18.4974C80.3273 18.5802 80.3857 18.6434 80.4602 18.6869C80.5348 18.7297 80.6215 18.7511 80.7202 18.7511C80.7844 18.7511 80.8424 18.7421 80.8942 18.7242C80.9466 18.7055 80.9918 18.6779 81.0298 18.6413C81.0678 18.604 81.0971 18.5578 81.1178 18.5025L81.354 18.5688C81.3291 18.6489 81.2873 18.7193 81.2286 18.7801C81.17 18.8401 81.0975 18.8871 81.0112 18.9209C80.9249 18.9541 80.8279 18.9706 80.7202 18.9706ZM81.7506 18.9375V17.3468H81.9867V17.5954H82.0074C82.0405 17.5105 82.094 17.4445 82.1679 17.3976C82.2418 17.3499 82.3305 17.3261 82.4341 17.3261C82.539 17.3261 82.6263 17.3499 82.6961 17.3976C82.7665 17.4445 82.8214 17.5105 82.8607 17.5954H82.8773C82.918 17.5132 82.9791 17.448 83.0606 17.3997C83.142 17.3506 83.2397 17.3261 83.3537 17.3261C83.4959 17.3261 83.6122 17.3707 83.7026 17.4597C83.7931 17.5481 83.8383 17.6858 83.8383 17.8729V18.9375H83.5939V17.8729C83.5939 17.7555 83.5618 17.6717 83.4976 17.6213C83.4334 17.5709 83.3578 17.5457 83.2708 17.5457C83.159 17.5457 83.0723 17.5795 83.0109 17.6472C82.9494 17.7141 82.9187 17.799 82.9187 17.9019V18.9375H82.6702V17.8481C82.6702 17.7576 82.6408 17.6848 82.5821 17.6296C82.5235 17.5736 82.4479 17.5457 82.3554 17.5457C82.2918 17.5457 82.2325 17.5626 82.1772 17.5964C82.1227 17.6302 82.0785 17.6772 82.0447 17.7373C82.0115 17.7966 81.995 17.8653 81.995 17.9433V18.9375H81.7506ZM84.9521 18.9706C84.7988 18.9706 84.6666 18.9368 84.5554 18.8691C84.445 18.8008 84.3597 18.7055 84.2997 18.5833C84.2403 18.4604 84.2106 18.3175 84.2106 18.1546C84.2106 17.9917 84.2403 17.8481 84.2997 17.7238C84.3597 17.5988 84.4433 17.5015 84.5503 17.4318C84.658 17.3613 84.7836 17.3261 84.9272 17.3261C85.0101 17.3261 85.0919 17.3399 85.1726 17.3675C85.2534 17.3952 85.3269 17.44 85.3932 17.5022C85.4595 17.5636 85.5123 17.6451 85.5517 17.7466C85.591 17.8481 85.6107 17.973 85.6107 18.1214V18.225H84.3846V18.0137H85.3622C85.3622 17.924 85.3442 17.8439 85.3083 17.7735C85.2731 17.7031 85.2227 17.6475 85.1571 17.6068C85.0922 17.566 85.0156 17.5457 84.9272 17.5457C84.8299 17.5457 84.7456 17.5698 84.6745 17.6182C84.6041 17.6658 84.5499 17.7279 84.5119 17.8046C84.474 17.8812 84.455 17.9634 84.455 18.051V18.1919C84.455 18.312 84.4757 18.4138 84.5171 18.4974C84.5592 18.5802 84.6176 18.6434 84.6921 18.6869C84.7667 18.7297 84.8533 18.7511 84.9521 18.7511C85.0163 18.7511 85.0743 18.7421 85.126 18.7242C85.1785 18.7055 85.2237 18.6779 85.2617 18.6413C85.2997 18.604 85.329 18.5578 85.3497 18.5025L85.5858 18.5688C85.561 18.6489 85.5192 18.7193 85.4605 18.7801C85.4019 18.8401 85.3294 18.8871 85.2431 18.9209C85.1568 18.9541 85.0598 18.9706 84.9521 18.9706ZM86.2269 17.9806V18.9375H85.9825V17.3468H86.2186V17.5954H86.2393C86.2766 17.5146 86.3332 17.4497 86.4091 17.4007C86.4851 17.351 86.5831 17.3261 86.7032 17.3261C86.8109 17.3261 86.9052 17.3482 86.9859 17.3924C87.0667 17.4359 87.1295 17.5022 87.1744 17.5912C87.2193 17.6796 87.2417 17.7914 87.2417 17.9268V18.9375H86.9973V17.9433C86.9973 17.8184 86.9649 17.721 86.9 17.6513C86.8351 17.5809 86.746 17.5457 86.6328 17.5457C86.5548 17.5457 86.4851 17.5626 86.4236 17.5964C86.3629 17.6302 86.3149 17.6796 86.2797 17.7445C86.2445 17.8094 86.2269 17.8881 86.2269 17.9806ZM88.3801 17.3468V17.554H87.5558V17.3468H88.3801ZM87.796 16.9657H88.0404V18.4818C88.0404 18.5509 88.0504 18.6026 88.0704 18.6372C88.0912 18.671 88.1174 18.6938 88.1492 18.7055C88.1816 18.7166 88.2158 18.7221 88.2517 18.7221C88.2786 18.7221 88.3007 18.7207 88.318 18.7179C88.3352 18.7145 88.349 18.7117 88.3594 18.7097L88.4091 18.9292C88.3925 18.9354 88.3694 18.9416 88.3397 18.9478C88.31 18.9547 88.2724 18.9582 88.2268 18.9582C88.1578 18.9582 88.0901 18.9434 88.0238 18.9137C87.9583 18.884 87.9037 18.8388 87.8602 18.778C87.8174 18.7173 87.796 18.6406 87.796 18.5481V16.9657Z" fill="white"/>
</svg>
